<?xml version="1.0" standalone="no"?>
<!DOCTYPE svg PUBLIC "-//W3C//DTD SVG 1.1//EN" "http://www.w3.org/Graphics/SVG/1.1/DTD/svg11.dtd" >
<svg xmlns="http://www.w3.org/2000/svg">
<metadata>Generated by IcoMoon</metadata>
<defs>
<font id="soluc-icon" horiz-adv-x="1024">
<font-face units-per-em="1024" ascent="960" descent="-64" />
<missing-glyph horiz-adv-x="1024" />
<glyph unicode="&#x20;" horiz-adv-x="512" d="" />
<glyph unicode="&#xe900;" glyph-name="500px" d="M898.754 108.872h0.002c-7.268 7.205-13.44 11.459-18.871 13.007-5.507 1.573-10.424 0.401-14.223-3.385l-3.574-3.547c-37.435-37.216-81.025-66.435-129.562-86.843-50.228-21.119-103.6-31.828-158.632-31.828-55.034 0-108.404 10.709-158.63 31.828-48.533 20.406-92.121 49.623-129.556 86.841-39.002 38.771-68.392 82.1-87.352 128.786-18.488 45.521-24.526 79.759-26.51 91.009-0.185 1.055-0.332 1.888-0.447 2.49-2.544 13.249-14.81 14.174-32.439 11.493-7.33-1.114-29.639-4.508-27.515-20.464l0.052-0.365c5.906-36.936 16.339-73.153 31.013-107.641 23.584-55.431 57.338-105.202 100.324-147.931 42.987-42.736 93.054-76.29 148.812-99.731 57.725-24.281 119.043-36.592 182.247-36.592 63.172 0 124.492 12.317 182.25 36.61 55.739 23.433 105.806 56.994 148.814 99.75 0.099 0.098 2.447 2.415 3.733 3.807 4.732 5.122 8.85 14.084-9.936 32.705v0zM573.311 850.287c-60.395 0-124.64-12.12-171.842-32.418-5.045-1.964-8.061-5.992-8.725-11.653-0.62-5.339 0.83-12.384 4.44-21.551 2.927-7.436 10.702-27.189 25.756-21.481 48.308 18.319 101.711 28.408 150.371 28.408 55.139 0 108.614-10.729 158.943-31.889 39.989-16.818 77.723-41.112 118.746-76.45 2.991-2.578 6.166-3.885 9.435-3.885 7.997 0 15.669 7.811 22.231 15.131 10.954 12.216 18.477 22.37 7.684 32.532-39.175 36.893-82.104 64.453-135.099 86.731-57.634 24.236-118.849 36.526-181.941 36.526v0zM490.976 342.639c0.072-6.785 6.318-12.734 10.049-16.29l1.172-1.124c6.399-6.257 12.495-9.429 18.115-9.429 4.654 0 7.522 2.187 8.537 3.127 2.818 2.603 34.703 34.72 37.746 37.784l35.558-35.234c3.292-3.686 6.871-5.534 11.040-5.648 5.678 0 11.866 3.357 18.391 9.976 15.344 15.575 7.666 23.974 3.953 28.033l-36.028 35.828 37.573 37.616c8.238 8.864 0.964 18.282-6.294 25.498-10.538 10.478-20.704 13.181-27.223 7.211l-37.358-37.204-37.781 37.569c-2.002 1.907-4.528 2.914-7.303 2.914-5.035 0-10.991-3.383-17.707-10.060-11.619-11.549-14.11-19.532-8.063-25.901l37.791-37.454-37.569-37.413c-3.090-3.068-4.637-6.363-4.6-9.798v0zM251.399 287.171c0.227-0.621 5.562-15.29 8.655-22.561 16.973-39.897 41.281-75.735 72.247-106.521 30.945-30.759 67-54.921 107.166-71.809 41.58-17.486 85.739-26.352 131.251-26.352 45.504 0 89.663 8.868 131.251 26.356 40.15 16.882 76.206 41.046 107.164 71.821 30.956 30.769 55.261 66.613 72.247 106.531 17.589 41.341 26.508 85.242 26.508 130.48 0 45.24-8.918 89.141-26.508 130.478-16.982 39.916-41.289 75.76-72.247 106.535-30.947 30.767-67.004 54.931-107.164 71.821-41.584 17.486-85.743 26.352-131.251 26.352-46.048 0-92.059-9.112-133.062-26.352-32.775-13.783-88.25-49.267-120.722-82.559l-0.192-0.195v275.853l466.125 0.004c16.963 0.184 16.963 23.732 16.963 31.472 0 7.735 0 31.277-17.015 31.47l-504.005 0.004c-13.72 0-22.214-11.346-22.214-21.858v-388.278c0-12.526 15.696-21.572 30.28-24.672 28.481-6.048 35.061 3.002 42.037 12.579l0.925 1.27c10.649 15.727 43.926 49.021 44.26 49.353 51.932 51.626 121.371 80.056 195.521 80.056 73.796 0 143.037-28.43 194.969-80.056 52.107-51.804 80.805-120.443 80.805-193.276 0-73.097-28.549-141.734-80.393-193.272-51.18-50.878-122.679-80.058-196.16-80.058-49.771 0-97.813 13.183-138.966 38.132l0.175 236.089c0 31.48 13.743 65.7 36.759 91.542 26.316 29.542 62.583 45.812 102.123 45.812 38.292 0 74.053-14.451 100.701-40.692 26.456-26.055 41.025-60.766 41.025-97.743 0-78.895-62.406-140.696-142.071-140.696-15.358 0-43.277 6.746-44.425 7.025-16.086 4.762-22.929-17.439-25.181-24.756-8.659-28.142 4.353-33.72 7.050-34.554 25.636-7.909 42.447-9.409 64.499-9.409 112.465 0 203.959 91.003 203.959 202.856 0 110.957-91.439 201.228-203.834 201.228-55.041 0-106.748-20.916-145.594-58.894-36.994-36.17-58.213-84.396-58.213-132.303l-0.021-1.19c-0.179-5.974-0.297-147.505-0.332-193.952l-0.21 0.231c-21.139 23.269-42.033 58.888-55.885 95.279-5.431 14.262-17.697 11.737-34.435 6.613-7.309-2.238-29.555-9.050-24.635-25.037l0.068-0.199z" />
<glyph unicode="&#xe901;" glyph-name="instagram-circle" d="M512 960c282.667 0 512-229.12 512-512 0-282.667-229.333-512-512-512-282.88 0-512 229.333-512 512 0 282.88 229.12 512 512 512zM938.667 448c0 235.733-190.933 426.667-426.667 426.667s-426.667-190.933-426.667-426.667 190.933-426.667 426.667-426.667 426.667 190.933 426.667 426.667zM819.2 646.187c-28.16 43.52-65.493 80.64-109.013 109.013 3.84-1.28 7.68-2.56 11.52-4.053 20.885-8.107 38.827-18.987 56.533-36.907 17.685-17.707 28.8-35.627 36.885-56.747 1.515-3.627 2.795-7.467 4.075-11.307zM815.147 238.293c-8.107-20.885-19.2-38.827-36.885-56.533-17.707-17.685-35.648-28.8-56.533-36.885-3.84-1.493-7.68-2.773-11.52-4.053 43.52 28.16 80.853 65.493 109.013 109.013-1.301-3.861-2.581-7.701-4.075-11.541zM682.88 657.28c21.12 0 38.4-17.28 38.4-38.613 0-21.12-17.28-38.187-38.4-38.187-21.333 0-38.4 17.067-38.4 38.187 0 21.333 17.067 38.613 38.4 38.613zM512 554.667c-58.88 0-106.667-47.787-106.667-106.667s47.787-106.667 106.667-106.667 106.667 47.787 106.667 106.667-47.787 106.667-106.667 106.667zM347.733 448c0 90.667 73.6 164.267 164.267 164.267 90.88 0 164.267-73.6 164.267-164.267 0-90.88-73.387-164.267-164.267-164.267-90.667 0-164.267 73.387-164.267 164.267zM512 710.4c-85.547 0-95.573-0.427-129.28-1.92-31.147-1.493-48.213-6.613-59.52-11.093-14.933-5.76-25.6-12.587-36.693-23.893-11.307-11.093-18.133-21.76-23.893-36.693-4.48-11.307-9.6-28.373-11.093-59.52-1.493-33.707-1.92-43.733-1.92-129.28 0-85.333 0.427-95.573 1.92-129.28 1.493-31.147 6.613-48.235 11.093-59.52 5.76-14.933 12.587-25.6 23.893-36.715 11.093-11.093 21.76-18.133 36.693-23.893 11.307-4.48 28.373-9.579 59.52-11.093 33.707-1.493 43.733-1.92 129.28-1.92 85.333 0 95.573 0.427 129.28 1.92 31.147 1.493 48.235 6.613 59.52 11.093 14.933 5.781 25.6 12.821 36.715 23.893 11.093 11.115 18.133 21.781 23.893 36.715 4.48 11.285 9.579 28.373 11.093 59.52 1.472 33.707 1.899 43.947 1.899 129.28 0 85.547-0.427 95.573-1.92 129.28-1.493 31.147-6.613 48.213-11.093 59.52-5.781 14.933-12.821 25.6-23.893 36.693-11.115 11.307-21.781 18.133-36.715 23.893-11.285 4.48-28.373 9.6-59.52 11.093-33.685 1.493-43.925 1.92-129.259 1.92zM313.813 140.8c-43.52 28.16-80.64 65.493-109.013 109.013-5.547 17.92-9.6 38.4-10.88 66.347-1.493 34.133-1.92 45.013-1.92 131.84s0.427 97.707 1.92 132.053c1.28 27.733 5.333 48.427 10.88 66.133 28.373 43.52 65.493 80.64 109.013 109.013 17.707 5.547 38.4 9.6 66.133 10.88 34.347 1.493 45.227 1.92 132.053 1.92s97.707-0.427 131.84-1.92c27.968-1.28 48.448-5.333 66.347-10.88 43.52-28.373 80.853-65.493 109.013-109.013 5.547-17.707 9.579-38.4 10.88-66.133 1.707-34.347 1.92-45.227 1.92-132.053s-0.213-97.707-1.92-131.84c-1.301-27.968-5.333-48.448-10.88-66.347-28.16-43.52-65.493-80.853-109.013-109.013-17.92-5.547-38.4-9.579-66.347-10.88-34.133-1.707-45.013-1.92-131.84-1.92s-97.707 0.213-132.053 1.92c-27.733 1.28-48.427 5.333-66.133 10.88zM204.8 249.813c28.373-43.52 65.493-80.853 109.013-109.013-3.84 1.301-7.68 2.56-11.307 4.053-21.12 8.107-39.040 19.2-56.747 36.885-17.92 17.707-28.8 35.648-36.907 56.533-1.493 3.861-2.773 7.701-4.053 11.541zM313.813 755.2c-43.52-28.373-80.64-65.493-109.013-109.013 1.28 3.84 2.56 7.68 4.053 11.307 8.107 21.12 18.987 39.040 36.907 56.747 17.707 17.92 35.627 28.8 56.747 36.907 3.627 1.493 7.467 2.773 11.307 4.053z" />
<glyph unicode="&#xe902;" glyph-name="airbnb" horiz-adv-x="939" d="M921.6 245.333l-4.267 12.8c-4.267 8.533-6.4 17.067-10.667 23.467-4.267 8.533-6.4 17.067-10.667 23.467-4.267 8.533-8.533 17.067-12.8 25.6l-2.133 2.133c-70.4 153.6-142.933 300.8-215.467 441.6l-2.133 6.4c-8.533 14.933-17.067 29.867-23.467 46.933l-4.267 4.267c-8.533 17.067-19.2 34.133-34.133 51.2-32 40.533-81.067 64-132.267 64s-98.133-21.333-132.267-61.867c-14.933-19.2-25.6-38.4-36.267-55.467-8.533-14.933-14.933-32-23.467-46.933l-2.133-6.4c-83.2-160-155.733-305.067-217.6-441.6l-2.133-2.133c-4.267-8.533-8.533-17.067-10.667-25.6-4.267-8.533-6.4-14.933-10.667-23.467-4.267-10.667-10.667-23.467-14.933-36.267-12.8-38.4-17.067-74.667-12.8-110.933 10.667-76.8 61.867-140.8 134.4-170.667 25.6-10.667 53.333-17.067 83.2-17.067 8.533 0 19.2 2.133 27.733 2.133 34.133 4.267 70.4 14.933 102.4 34.133 38.4 21.333 74.667 51.2 117.333 96 40.533-42.667 78.933-72.533 117.333-96 32-19.2 66.133-29.867 102.4-34.133 6.4 0 17.067-2.133 27.733-2.133 29.867 0 59.733 6.4 83.2 17.067 70.4 27.733 121.6 93.867 134.4 170.667 2.133 32-2.133 68.267-14.933 108.8zM377.6 430.933c2.133 12.8 6.4 25.6 12.8 36.267 17.067 25.6 44.8 38.4 76.8 38.4 34.133 0 61.867-14.933 76.8-38.4 8.533-10.667 12.8-23.467 14.933-36.267 2.133-17.067 2.133-36.267-2.133-55.467-10.667-46.933-40.533-104.533-89.6-168.533-46.933 61.867-78.933 119.467-89.6 168.533-2.133 21.333-2.133 38.4 0 55.467zM640 354.133c6.4 29.867 8.533 57.6 4.267 87.467-4.267 25.6-12.8 51.2-27.733 70.4-32 46.933-85.333 74.667-147.2 74.667-59.733 0-113.067-27.733-147.2-74.667-14.933-21.333-23.467-44.8-27.733-70.4-4.267-27.733-2.133-57.6 4.267-87.467 14.933-64 53.333-136.533 115.2-215.467-36.267-40.533-70.4-68.267-102.4-87.467-23.467-12.8-46.933-21.333-70.4-23.467s-46.933 0-70.4 8.533c-44.8 19.2-76.8 59.733-83.2 106.667-2.133 27.733 0 49.067 10.667 74.667 2.133 6.4 4.267 12.8 8.533 19.2 2.133 4.267 2.133 6.4 4.267 10.667 6.4 14.933 14.933 32 21.333 49.067v2.133c72.533 153.6 145.067 302.933 215.467 439.467l2.133 6.4c4.267 6.4 8.533 14.933 12.8 23.467s8.533 14.933 12.8 23.467c8.533 17.067 17.067 29.867 25.6 40.533 19.2 21.333 42.667 32 70.4 32s51.2-10.667 70.4-32c8.533-10.667 17.067-23.467 25.6-40.533 4.267-6.4 8.533-14.933 10.667-23.467 4.267-8.533 8.533-14.933 10.667-21.333l2.133-6.4c74.667-145.067 145.067-292.267 213.333-437.333l2.133-4.267c4.267-8.533 6.4-14.933 10.667-23.467s8.533-17.067 10.667-23.467c2.133-4.267 2.133-6.4 4.267-10.667 4.267-6.4 6.4-12.8 8.533-19.2 8.533-25.6 10.667-49.067 6.4-70.4v0c-6.4-46.933-38.4-87.467-83.2-106.667-21.333-8.533-44.8-12.8-68.267-8.533-23.467 2.133-46.933 10.667-70.4 23.467-32 17.067-64 44.8-102.4 87.467 64 70.4 102.4 142.933 117.333 206.933z" />
<glyph unicode="&#xe903;" glyph-name="instagram-circle2" d="M512 572.651c-68.715 0-124.48-55.829-124.48-124.651 0-68.885 55.765-124.608 124.48-124.608 68.779 0 124.352 55.701 124.352 124.608 0 68.821-55.573 124.651-124.352 124.651zM803.051 668.523c-6.827 17.451-14.912 29.909-27.968 43.008-13.056 13.077-25.493 21.184-42.923 27.989-13.163 5.12-32.96 11.221-69.312 12.864-39.36 1.813-51.2 2.176-150.848 2.176-99.712 0-111.467-0.363-150.827-2.176-36.395-1.643-56.171-7.744-69.333-12.864-17.408-6.805-29.867-14.912-42.923-27.989-13.077-13.099-21.141-25.536-27.968-43.008-5.12-13.184-11.157-32.96-12.821-69.419-1.835-39.424-2.197-51.243-2.197-151.104 0-99.84 0.363-111.68 2.197-151.125 1.664-36.437 7.701-56.256 12.821-69.44 6.827-17.451 14.891-29.888 27.968-42.987 13.056-13.077 25.493-21.184 42.923-27.968 13.163-5.141 32.939-11.264 69.333-12.885 39.36-1.835 51.115-2.219 150.827-2.219 99.648 0 111.488 0.384 150.848 2.219 36.352 1.6 56.149 7.723 69.312 12.885 17.408 6.763 29.845 14.869 42.923 27.968 13.035 13.077 21.12 25.515 27.968 42.987 5.12 13.184 11.2 33.003 12.8 69.44 1.877 39.445 2.197 51.285 2.197 151.125 0 99.861-0.32 111.68-2.197 151.104-1.6 36.459-7.68 56.256-12.8 69.419zM512 255.957c-105.899 0-191.68 85.952-191.68 192.043 0 106.069 85.781 192 191.68 192 105.92 0 191.68-85.931 191.68-192 0-106.091-85.76-192.043-191.68-192.043zM711.339 602.731c-24.704 0-44.885 20.075-44.885 44.864s20.16 44.885 44.885 44.885c24.747 0 44.715-20.075 44.715-44.885s-19.968-44.864-44.715-44.864zM509.312 959.488c-283.456 0-513.259-228.565-513.259-510.571 0-281.984 229.781-510.613 513.259-510.613 283.499 0 513.301 228.629 513.301 510.613s-229.803 510.571-513.301 510.571zM865.749 203.008c-9.536-24.533-22.336-45.376-43.072-66.176-20.821-20.8-41.579-33.579-66.091-43.136-23.851-9.237-51.008-15.637-90.667-17.365-39.808-1.899-52.565-2.24-153.941-2.24-101.397 0-114.091 0.363-153.941 2.24-39.744 1.728-66.837 8.149-90.581 17.365-24.576 9.557-45.397 22.357-66.155 43.136s-33.515 41.621-43.072 66.176c-9.195 23.829-15.531 51.093-17.323 90.795-1.792 39.936-2.24 52.629-2.24 154.197s0.448 114.283 2.261 154.176c1.792 39.808 8.128 66.965 17.323 90.752 9.557 24.64 22.315 45.461 43.072 66.24 20.757 20.8 41.579 33.579 66.155 43.136 23.744 9.216 50.837 15.552 90.581 17.365 39.851 1.835 52.544 2.261 153.941 2.261 101.376 0 114.133-0.427 153.941-2.24 39.659-1.813 66.816-8.149 90.667-17.365 24.491-9.579 45.269-22.357 66.091-43.136 20.736-20.779 33.515-41.621 43.072-66.24 9.173-23.787 15.573-50.944 17.323-90.752 1.856-39.915 2.24-52.629 2.24-154.197s-0.384-114.261-2.261-154.219c-1.728-39.701-8.149-66.944-17.323-90.773z" />
<glyph unicode="&#xe904;" glyph-name="amazon" d="M541.923 406.197c-15.834-31.624-42.988-51.983-72.369-58.85-4.455 0-11.259-2.229-18.062-2.229-49.671 0-79.052 38.43-79.052 94.931 0 72.403 42.928 106.255 97.114 122.157 29.381 6.746 63.338 9.035 97.234 9.035v-27.166c0-51.983 2.228-92.642-24.865-137.879v0zM566.789 675.147c-29.381-2.229-63.338-4.457-97.234-8.915-51.959-6.867-103.917-15.902-146.784-36.262-83.627-33.912-140.162-106.255-140.162-212.45 0-133.481 85.855-201.246 194.408-201.246 36.124 0 65.505 4.578 92.538 11.264 43.048 13.613 79.112 38.49 122.039 83.727 24.865-33.912 31.729-49.815 74.596-85.956 11.319-4.457 22.638-4.457 31.609 2.229 27.153 22.648 74.657 63.368 99.462 85.956 11.319 9.035 9.091 22.648 2.228 33.852-24.805 31.684-49.731 58.85-49.731 119.868v203.475c0 85.896 6.864 165.045-56.414 223.774-51.959 47.405-133.358 65.536-196.636 65.536h-27.153c-115.176-6.686-237.155-56.44-264.369-198.897-4.516-18.131 9.091-24.877 18.122-27.106l126.555-15.842c13.547 2.289 20.35 13.613 22.578 24.817 11.259 49.754 51.959 74.632 97.114 79.209h9.091c27.153 0 56.534-11.324 72.308-33.973 18.062-27.106 15.834-63.307 15.834-94.991v-18.071zM1023.88 193.144v0.060c-0.482 10.662-2.709 18.793-7.165 25.54l-0.482 0.663-0.542 0.663c-4.516 4.939-8.85 6.807-13.547 8.855-14.028 5.421-34.438 8.312-59.003 8.373-17.641 0-37.087-1.687-56.655-5.963l-0.060 1.325-19.688-6.566-0.361-0.181-11.138-3.614v-0.482c-13.065-5.421-24.926-12.168-35.944-20.179-6.864-5.12-12.523-11.927-12.824-22.347-0.181-5.662 2.709-12.168 7.466-16.023s10.295-5.18 15.172-5.18c1.144 0 2.228 0.060 3.191 0.241l0.963 0.060 0.722 0.12c9.633 2.048 23.661 3.433 40.098 5.722 14.088 1.566 29.020 2.711 41.964 2.711 9.151 0.060 17.4-0.602 23.059-1.807 2.83-0.602 4.937-1.325 6.081-1.928 0.421-0.12 0.722-0.301 0.903-0.422 0.241-0.783 0.602-2.831 0.542-5.662 0.12-10.842-4.455-30.961-10.777-50.598-6.141-19.637-13.607-39.334-18.544-52.405-1.204-3.012-1.987-6.325-1.987-9.939-0.12-5.24 2.047-11.625 6.623-15.842 4.455-4.216 10.235-5.903 15.052-5.903h0.241c7.225 0.060 13.366 2.952 18.664 7.108 49.972 44.936 67.372 116.736 68.094 157.154l-0.12 6.445zM875.71 130.861c-5.118 0.060-10.356-1.144-15.232-3.433-5.479-2.168-11.078-4.698-16.376-6.927l-7.767-3.253-10.115-4.036v-0.12c-109.878-44.574-225.294-70.716-332.101-73.005-3.913-0.12-7.887-0.12-11.68-0.12-167.977-0.12-305.008 77.824-443.243 154.624-4.817 2.53-9.814 3.855-14.63 3.855-6.201 0-12.583-2.349-17.219-6.686-4.636-4.397-7.405-10.722-7.345-17.167-0.060-8.373 4.455-16.083 10.777-21.082 129.746-112.7 271.955-217.389 463.232-217.51 3.733 0 7.526 0.12 11.319 0.181 121.678 2.711 259.251 43.851 366.058 110.953l0.662 0.422c13.968 8.373 27.936 17.89 41.121 28.431 8.188 6.084 13.848 15.601 13.848 25.48-0.361 17.528-15.232 29.395-31.308 29.395z" />
<glyph unicode="&#xe905;" glyph-name="instagram2" d="M803.051 671.445c-6.848 17.728-14.912 30.315-27.968 43.563-13.035 13.291-25.451 21.483-42.944 28.373-13.099 5.184-32.896 11.349-69.333 13.013-39.296 1.856-51.157 2.219-150.805 2.219-99.691 0-111.488-0.363-150.848-2.219-36.416-1.685-56.171-7.829-69.333-13.013-17.451-6.891-29.845-15.083-42.923-28.373-13.056-13.269-21.184-25.856-27.968-43.563-5.099-13.355-11.157-33.387-12.8-70.357-1.856-39.893-2.197-51.925-2.197-153.088 0-101.184 0.341-113.109 2.219-153.131 1.621-36.907 7.68-57.024 12.8-70.251 6.784-17.728 14.912-30.379 27.968-43.648 13.056-13.248 25.451-21.461 42.923-28.288 13.163-5.227 32.917-11.456 69.333-13.056 39.36-1.877 51.157-2.219 150.848-2.219 99.648 0 111.509 0.363 150.805 2.219 36.437 1.6 56.235 7.829 69.333 13.056 17.472 6.827 29.888 15.040 42.944 28.288 13.035 13.269 21.099 25.92 27.968 43.648 5.12 13.227 11.221 33.344 12.8 70.251 1.941 40.021 2.197 51.947 2.197 153.131 0 101.163-0.256 113.195-2.197 153.088-1.6 36.971-7.701 57.003-12.821 70.357zM512 253.483c-105.92 0-191.701 87.083-191.701 194.517 0 107.456 85.781 194.56 191.701 194.56 105.899 0 191.701-87.104 191.701-194.56 0-107.435-85.803-194.517-191.701-194.517zM711.296 604.779c-24.725 0-44.8 20.395-44.8 45.483 0 25.131 20.053 45.483 44.8 45.483 24.789 0 44.8-20.352 44.8-45.483-0.021-25.088-20.011-45.483-44.8-45.483zM737.685 960.277h-451.349c-158.144 0-286.336-128.256-286.336-286.464v-451.627c0-158.187 128.192-286.464 286.336-286.464h451.349c158.101 0 286.315 128.277 286.315 286.464v451.627c0 158.208-128.213 286.464-286.315 286.464zM883.093 291.797c-1.728-40.277-8.107-67.925-17.323-92.011-9.579-24.896-22.357-45.973-43.072-67.072-20.8-21.077-41.579-34.027-66.133-43.691-23.765-9.365-50.965-15.787-90.645-17.6-39.787-1.856-52.544-2.261-153.941-2.261-101.376 0-114.112 0.427-153.941 2.261-39.723 1.813-66.837 8.235-90.603 17.6-24.533 9.664-45.376 22.613-66.112 43.691-20.757 21.077-33.536 42.176-43.115 67.072-9.152 24.107-15.509 51.755-17.323 92.011-1.771 40.341-2.219 53.355-2.219 156.203 0 102.912 0.427 115.797 2.219 156.203 1.813 40.363 8.171 67.883 17.323 91.989 9.557 24.917 22.336 46.037 43.115 67.115 20.736 21.056 41.579 34.048 66.112 43.712 23.765 9.344 50.88 15.787 90.603 17.579 39.851 1.856 52.587 2.283 153.963 2.283 101.397 0 114.155-0.448 153.941-2.283 39.68-1.792 66.88-8.235 90.645-17.579 24.533-9.685 45.333-22.677 66.133-43.712 20.715-21.077 33.472-42.197 43.072-67.115 9.216-24.107 15.573-51.627 17.323-91.989 1.813-40.405 2.219-53.291 2.219-156.203 0-102.848-0.405-115.861-2.24-156.203zM636.459 448.021c0-69.738-55.722-126.272-124.459-126.272s-124.459 56.534-124.459 126.272c0 69.738 55.722 126.272 124.459 126.272s124.459-56.534 124.459-126.272z" />
<glyph unicode="&#xe906;" glyph-name="seg-industrial" d="M512 959.104c-282.773 0-512-229.035-512-511.552s229.227-511.552 512-511.552 512 229.035 512 511.552c0 282.539-229.227 511.552-512 511.552zM512 44.459c-217.963 0-394.667 180.693-394.667 403.541 0 222.912 176.704 403.563 394.667 403.563 217.984 0 394.667-180.672 394.667-403.563 0-222.848-176.683-403.541-394.667-403.541zM597.333 533.333v213.333h-170.667v-213.333h-213.333v-170.667h213.333v-213.333h170.667v213.333h213.333v170.667z" />
<glyph unicode="&#xe907;" glyph-name="android-black" horiz-adv-x="896" d="M570.176 755.181c-16.888 0-30.56 13.306-30.56 29.742s13.671 29.682 30.56 29.682c16.888 0 30.56-13.246 30.56-29.682s-13.671-29.742-30.56-29.742v0zM325.824 755.181c-16.888 0-30.56 13.306-30.56 29.742s13.671 29.682 30.56 29.682c16.888 0 30.56-13.246 30.56-29.682s-13.671-29.742-30.56-29.742v0zM588.24 874.271l11.382 16.738 11.382 16.497 25.363 37.088c3.155 4.576 1.856 10.717-2.846 13.727-4.64 3.071-11.011 1.806-14.043-2.77l-50.355-73.393c-36.808 13.908-77.822 21.675-121.125 21.675-43.241 0-84.317-7.767-121.125-21.675l-11.568 16.978-11.444 16.677-27.219 39.737c-3.155 4.576-9.465 5.78-14.166 2.77-4.64-3.010-5.939-9.152-2.846-13.727l25.363-37.088 11.382-16.497 11.444-16.738c-86.42-39.195-144.879-113.431-144.879-198.383h570.114c0 84.953-58.459 159.188-144.817 198.383zM167.335 636.271h-4.392v-436.021c0-34.619 28.889-62.796 64.521-62.796h46.52c-1.608-5.238-2.474-10.717-2.474-16.497v-125.532c0-32.813 27.405-59.425 61.119-59.425s61.119 26.612 61.119 59.425v125.532c0 5.78-0.928 11.259-2.474 16.497h113.454c-1.547-5.238-2.413-10.717-2.413-16.497v-125.532c0-32.813 27.343-59.425 61.057-59.425 33.776 0 61.181 26.612 61.181 59.425v125.532c0 5.78-0.928 11.259-2.536 16.497h46.582c35.632 0 64.46 28.177 64.46 62.796v436.021h-565.722zM61.119 636.271c-33.776 0-61.119-26.612-61.119-59.425v-254.376c0-32.813 27.343-59.425 61.119-59.425 33.714 0 61.057 26.612 61.057 59.425v254.376c0 32.813-27.343 59.425-61.057 59.425zM834.943 636.271c-33.776 0-61.119-26.612-61.119-59.425v-254.376c0-32.813 27.343-59.425 61.119-59.425 33.714 0 61.057 26.612 61.057 59.425v254.376c0 32.813-27.343 59.425-61.057 59.425z" />
<glyph unicode="&#xe908;" glyph-name="blisk-browser" horiz-adv-x="927" d="M473.358 951.615l-434.717-251.807v-503.615l434.717-251.807 434.717 251.807v503.615l-434.717 251.807zM772.83 272.065l-309.132-175.915-309.132 175.915v351.85l309.132 175.935 309.132-175.935v-351.85zM193.208 606.237v-316.435l270.491-158.237 270.491 158.237v316.435l-270.491 158.198-270.491-158.198zM587.892 448c0-69.362-55.586-125.585-124.194-125.585s-124.213 56.223-124.213 125.585c0 69.362 55.605 125.585 124.213 125.585s124.194-56.223 124.194-125.585z" />
<glyph unicode="&#xe909;" glyph-name="apple" horiz-adv-x="875" d="M579.728 793.76c33.396 43.11 58.712 104.043 49.555 166.24-54.583-3.793-118.383-38.715-155.609-84.234-33.935-41.244-61.825-102.598-50.932-162.146 59.67-1.867 121.255 33.898 156.986 80.14v0zM874.667 208.699c-23.88-53.226-35.371-77.009-66.134-124.153-42.912-65.81-103.42-147.755-178.472-148.358-66.613-0.723-83.789 43.652-174.222 43.11-90.433-0.482-109.285-43.953-176.018-43.291-74.992 0.662-132.328 74.6-175.24 140.41-120.058 183.882-132.687 399.735-58.653 514.555 52.668 81.524 135.739 129.211 213.783 129.211 79.42 0 129.395-43.833 195.17-43.833 63.8 0 102.642 43.953 194.511 43.953 69.545 0 143.22-38.113 195.648-103.862-171.888-94.771-144.058-341.692 29.626-407.743v0z" />
<glyph unicode="&#xe90b;" glyph-name="bankin" horiz-adv-x="768" d="M767.4 241.281c3.215 54.933-7.347 88.247-11.151 102.989-32.17 103.524-116.077 159.15-116.077 159.15s89.898 62.293 98.677 202.64c8.774 140.352-145.328 253.941-337.594 253.941-236.851 0-379.904-100.833-394.464-108.844-2.665-1.462-7.814-4.529-6.611-8.898l37.556-120.109c2.145-8.090 2.67-14.553 12.652-10.008 0 0 93.387 38.312 114.016 38.312 0 0-107.512-752.492-104.904-752.492-2.608-22.365 0-28.652 29.623-37.505 11.805-3.533 539.701-120.45 658.144 190.106 0.248-1.714 17.248 41.412 20.133 90.718zM377.198 781.569c0.288 2.094 1.818 3.806 3.879 4.341 0.694 0.182 1.965 0.484 3.76 0.865 2.941 0.62 6.306 1.246 10.027 1.826 24.429 3.812 50.383 3.977 74.863-1.957 17.801-4.313 95.583-22.797 70.753-123.164-24.836-100.373-151.098-103.428-169.954-102.375-4.782 0.267-9.163 0.552-13.053 0.836-1.366 0.102-2.574 0.193-3.608 0.279-0.627 0.051-1.061 0.085-1.287 0.108-2.987 0.262-5.149 2.953-4.742 5.906l29.364 213.336zM582.433 240.108c-33.101-151.384-234.965-134.446-261.484-132.967-6.718 0.375-12.878 0.779-18.349 1.178-1.914 0.142-3.613 0.273-5.070 0.393-0.881 0.074-1.49 0.125-1.807 0.154-4.2 0.364-7.232 4.148-6.662 8.301l41.271 299.883c0.407 2.941 2.558 5.354 5.454 6.105 0.977 0.25 2.766 0.677 5.279 1.206 4.144 0.882 8.87 1.758 14.103 2.572 34.343 5.359 70.826 5.587 105.231-2.748 25.028-6.065 155.134-32.691 122.033-184.075v0z" />
<glyph unicode="&#xe90d;" glyph-name="behance" d="M654.331 661.205h271.173v77.691h-271.173v-77.691zM718.572 491.686c-17.279-17.581-28.177-41.4-32.632-71.454h210.906c-2.228 32.074-13.185 56.308-32.572 72.999-19.628 16.572-43.771 24.828-72.67 24.828-31.308 0-55.752-8.791-73.031-26.372v0 0zM901.602 595.987c32.692-14.374 59.605-37.182 80.798-68.306 19.326-27.441 31.729-59.278 37.389-95.451 3.311-21.145 4.636-51.794 4.094-91.649h-340.953c2.047-46.27 18.183-78.76 49.009-97.351 18.664-11.582 41.121-17.403 67.492-17.403 27.755 0 50.454 7.068 67.853 21.145 9.573 7.662 18.002 18.235 25.227 31.777h124.93c-3.311-27.322-18.484-55.18-45.336-83.452-41.904-44.845-100.606-67.297-176.046-67.297-62.314 0-117.283 18.888-164.787 56.783-47.744 37.836-71.466 99.49-71.466 184.783 0 80.007 21.494 141.364 64.422 184.071 43.048 42.587 98.74 64.030 167.316 64.030 40.76 0 77.426-7.246 110.059-21.68v0 0zM126.134 418.569v-166.489h153.649c27.454 0 48.888 3.683 64.121 10.988 27.755 13.661 41.603 39.558 41.603 77.929 0 32.549-13.366 54.823-40.279 67-15.052 6.771-36.184 10.335-63.278 10.573h-155.816zM126.134 659.601v-137.741h153.889c27.394 0 49.731 5.168 66.95 15.503 17.099 10.335 25.708 28.629 25.708 54.764 0 29.164-11.319 48.349-33.957 57.734-19.628 6.474-44.553 9.741-74.837 9.741h-137.754zM469.796 701.476c19.326-26.55 29.020-58.268 29.020-95.272 0-38.073-9.693-68.781-29.261-91.946-10.958-12.948-27.033-24.828-48.286-35.519 32.271-11.642 56.595-29.995 73.152-55.12 16.376-25.065 24.625-55.595 24.625-91.471 0-37.004-9.392-70.207-28.237-99.549-11.921-19.423-26.852-35.816-44.794-49.121-20.169-15.265-43.951-25.659-71.466-31.361-27.515-5.643-57.257-8.375-89.408-8.375h-285.141v624.26h305.792c77.186-1.129 131.793-23.284 164.004-66.524v0 0z" />
<glyph unicode="&#xe90f;" glyph-name="bitly" d="M558.080 51.185c-57.467-1.009-99.379 17.464-101.944 67.686-0.963 18.847-0.655 38.917 0.261 51.021 5.56 73.39 56.883 126.193 107.54 136.33 63.012 12.605 104.986-16.21 104.986-98.693 0-55.741-15.478-154.675-110.843-156.344v0zM509.665 960c-282.122 0-509.665-226.447-509.665-522.573 0-153.544 82.13-301.891 197.627-391.014 22.236-17.157 48.727-15.596 63.913-0.876 12.795 12.401 11.735 42.255-12.058 63.176-92.334 81.193-156.165 204.114-156.165 326.886 0 220.508 195.794 406.052 416.348 406.052 268.462 0 412.022-218.020 412.022-402.811 0-112.911-55.214-249.242-154.885-336.2 0.148 0.389 20.7 40.812 20.7 119.521 0 133.98-84.9 206.566-183.409 206.566-71.311 0-114.007-25.492-143.063-49.265 0 54.574 1.828 156.503 1.828 156.503 0 67.272-23.567 121.119-105.708 122.296-47.544 0.676-82.821-21.13-104.827-70.42-7.926-18.488-5.007-38.574 10.665-47.677 12.969-7.526 34.294-1.946 44.851 12.14 7.045 8.796 10.998 10.68 17.126 10.020 10.092-1.085 10.476-17.347 10.875-27.745 0.307-7.982 8.064-123.955 3.82-421.965 0-82.196 64.471-176.614 218.839-176.614 66.458 0 117.489 18.575 191.626 60.698 112.84 64.118 273.874 206.346 273.874 446.904 0 300.58-243.425 516.398-514.335 516.398v0z" />
<glyph unicode="&#xe911;" glyph-name="blackberry" d="M329.956 733.214c0 34.183-20.819 77.453-108.318 77.453h-134.731l-38.303-178.162h140.46c109.662 0 140.891 52.194 140.891 100.71v0zM692.888 733.214c0 34.183-20.765 77.453-108.237 77.453h-134.758l-38.276-178.135h140.38c109.716-0.027 140.891 52.167 140.891 100.683zM281.351 465.078c0 34.183-20.819 77.561-108.318 77.561h-134.731l-38.302-178.271h140.407c109.689 0 140.945 52.329 140.945 100.71zM644.283 465.078c0 34.183-20.846 77.561-108.264 77.561h-134.731l-38.356-178.271h140.46c109.716 0 140.891 52.329 140.891 100.71v0zM1024 573.82c0 34.21-20.846 77.561-108.264 77.561h-134.731l-38.356-178.244h140.407c109.716 0 140.945 52.194 140.945 100.683v0zM971.657 294.65c0 34.21-20.792 77.453-108.264 77.453h-134.731l-38.302-178.162h140.407c109.689 0 140.891 52.329 140.891 100.71zM592.129 185.881c0 34.345-20.765 77.696-108.183 77.696h-134.812l-38.302-178.244h140.407c109.716-0.027 140.891 52.167 140.891 100.548v0z" />
<glyph unicode="&#xe913;" glyph-name="blogger" d="M694.336 202.176h-365.733c-34.335 0-62.149 28.064-62.149 61.568 0 33.888 27.815 61.6 62.149 61.6h365.733c33.981 0 61.796-27.712 61.796-61.6 0-33.504-27.815-61.568-61.796-61.568zM328.604 695.52h179.96c34.335 0 62.149-27.712 62.149-61.568 0-33.888-27.815-61.92-62.149-61.92h-179.96c-34.335 0-62.149 28.032-62.149 61.92 0 33.856 27.815 61.568 62.149 61.568zM997.888 563.808c-21.616 9.248-114.342-1.024-140.101 22.24-18.179 16.768-19.335 47.104-26.433 87.584-11.884 67.776-16.83 83.136-29.196 109.824-44.966 95.104-152.755 176.544-250.684 176.544h-226.981c-178.579 0-324.493-145.76-324.493-323.648v-377.376c0-177.568 145.914-322.976 324.493-322.976h372.927c178.579 0 323.497 145.408 324.525 322.976l2.056 261.376c0 0 0 32.32-26.112 43.456z" />
<glyph unicode="&#xe915;" glyph-name="buffer" d="M1002.198 461.826l-95.978 44.544c-13.914 6.464-29.985 6.496-43.931 0.128l-328.452-150.145c-13.849-6.336-29.792-6.336-43.641 0l-328.485 150.145c-13.946 6.368-30.017 6.336-43.931-0.128l-95.978-44.544c-13.946-6.464-13.881-26.176 0.097-32.576l468.297-214.082c13.849-6.336 29.792-6.336 43.641 0l468.265 214.082c13.978 6.4 14.042 26.112 0.097 32.576v0zM1002.198 187.41l-95.978 44.544c-13.914 6.464-29.985 6.496-43.931 0.128l-328.452-150.145c-13.849-6.336-29.792-6.336-43.641 0l-328.485 150.145c-13.946 6.368-30.017 6.336-43.931-0.128l-95.978-44.544c-13.946-6.464-13.881-26.176 0.097-32.576l468.297-214.082c13.849-6.336 29.792-6.336 43.641 0l468.265 214.082c13.978 6.4 14.042 26.112 0.097 32.576v0zM486.504 954.384l-464.69-215.714c-13.946-6.464-13.881-26.176 0.097-32.576l468.265-214.082c13.849-6.336 29.792-6.336 43.641 0l468.297 214.082c13.978 6.4 14.010 26.112 0.097 32.576l-464.69 215.714c-16.168 7.488-34.849 7.488-51.017 0v0z" />
<glyph unicode="&#xe917;" glyph-name="chrome-black" d="M123.635 781.626c238.013 277.009 679.333 222.329 844.317-101.246-116.137-0.042-297.999 0.035-396.498 0-71.439-0.025-117.564 1.599-167.514-24.697-58.724-30.911-103.031-88.21-118.498-155.511l-161.807 281.453zM341.663 448.018c0-93.882 76.335-170.26 170.166-170.26 93.828 0 170.163 76.378 170.163 170.26 0 93.88-76.335 170.26-170.163 170.26-93.83 0-170.166-76.38-170.166-170.26v0zM577.87 225.16c-95.511-28.385-207.281 3.094-268.505 108.774-46.734 80.668-170.21 295.778-226.334 393.589-196.564-301.271-27.153-711.825 329.694-781.899l165.145 279.536zM669.898 618.279c79.549-73.988 96.88-193.793 42.996-286.688-40.597-69.989-170.168-288.678-232.965-394.574 367.664-22.665 635.686 337.675 514.623 681.262h-324.653z" />
<glyph unicode="&#xe918;" d="M123.635 781.626c238.013 277.009 679.333 222.329 844.317-101.246-116.137-0.042-297.999 0.035-396.498 0-71.439-0.025-117.564 1.599-167.514-24.697-58.724-30.911-103.031-88.21-118.498-155.511l-161.807 281.453z" />
<glyph unicode="&#xe919;" d="M341.663 448.018c0-93.882 76.335-170.26 170.166-170.26 93.828 0 170.163 76.378 170.163 170.26 0 93.88-76.335 170.26-170.163 170.26-93.83 0-170.166-76.38-170.166-170.26v0z" />
<glyph unicode="&#xe91a;" d="M577.87 225.16c-95.511-28.385-207.281 3.094-268.505 108.774-46.734 80.668-170.21 295.778-226.334 393.589-196.564-301.271-27.153-711.825 329.694-781.899l165.145 279.536z" />
<glyph unicode="&#xe91b;" d="M669.898 618.279c79.549-73.988 96.88-193.793 42.996-286.688-40.597-69.989-170.168-288.678-232.965-394.574 367.664-22.665 635.686 337.675 514.623 681.262h-324.653z" />
<glyph unicode="&#xe91c;" glyph-name="codepen" d="M1023.616 609.728c-0.096 0.672-0.256 1.28-0.352 1.92-0.224 1.248-0.448 2.496-0.768 3.68-0.192 0.736-0.48 1.44-0.704 2.144-0.352 1.088-0.704 2.144-1.12 3.2-0.288 0.736-0.64 1.472-0.992 2.144-0.448 1.024-0.928 1.984-1.504 2.912-0.384 0.704-0.832 1.376-1.248 2.048-0.576 0.928-1.184 1.824-1.856 2.688-0.48 0.64-0.992 1.28-1.504 1.888-0.704 0.832-1.44 1.632-2.208 2.4-0.576 0.576-1.12 1.184-1.728 1.696-0.832 0.736-1.664 1.44-2.496 2.112-0.672 0.512-1.312 1.024-1.984 1.504-0.256 0.16-0.48 0.384-0.736 0.544l-468 312c-14.784 9.856-34.016 9.856-48.832 0l-467.968-312c-0.256-0.16-0.48-0.384-0.736-0.544-0.704-0.48-1.344-0.992-1.984-1.504-0.864-0.672-1.696-1.376-2.496-2.112-0.608-0.512-1.184-1.12-1.76-1.696-0.768-0.768-1.504-1.568-2.176-2.4-0.544-0.608-1.056-1.248-1.536-1.888-0.64-0.864-1.248-1.76-1.824-2.688-0.448-0.672-0.864-1.344-1.28-2.048-0.544-0.928-1.024-1.888-1.504-2.912-0.32-0.672-0.672-1.408-0.96-2.144-0.448-1.056-0.8-2.112-1.152-3.2-0.224-0.704-0.48-1.408-0.672-2.144-0.32-1.184-0.544-2.432-0.768-3.68-0.128-0.64-0.288-1.248-0.352-1.92-0.256-1.856-0.416-3.776-0.416-5.728v-312c0-1.92 0.16-3.84 0.416-5.76 0.064-0.608 0.224-1.248 0.352-1.888 0.224-1.248 0.448-2.464 0.768-3.68 0.192-0.736 0.448-1.44 0.672-2.144 0.352-1.056 0.704-2.144 1.152-3.232 0.288-0.704 0.64-1.408 0.96-2.112 0.48-0.992 0.96-1.952 1.504-2.944 0.416-0.672 0.832-1.344 1.28-2.016 0.576-0.928 1.184-1.792 1.824-2.656 0.48-0.672 0.992-1.312 1.536-1.92 0.672-0.8 1.408-1.632 2.176-2.368 0.576-0.608 1.152-1.184 1.76-1.728 0.8-0.736 1.632-1.44 2.496-2.112 0.64-0.512 1.28-1.024 1.984-1.504 0.256-0.16 0.48-0.384 0.736-0.544l467.968-312c7.392-4.928 15.904-7.392 24.416-7.392s17.024 2.464 24.416 7.392l468 312c0.256 0.16 0.48 0.384 0.736 0.544 0.672 0.48 1.312 0.992 1.984 1.504 0.832 0.672 1.664 1.376 2.496 2.112 0.608 0.544 1.152 1.12 1.728 1.728 0.768 0.736 1.504 1.568 2.208 2.368 0.512 0.608 1.024 1.248 1.504 1.92 0.672 0.864 1.28 1.728 1.856 2.656 0.416 0.672 0.864 1.344 1.248 2.016 0.576 0.992 1.056 1.952 1.504 2.944 0.352 0.704 0.704 1.408 0.992 2.112 0.416 1.088 0.768 2.176 1.12 3.232 0.224 0.704 0.512 1.408 0.704 2.144 0.32 1.216 0.544 2.432 0.768 3.68 0.096 0.64 0.256 1.28 0.352 1.888 0.256 1.92 0.384 3.84 0.384 5.76v312c0 1.952-0.128 3.872-0.384 5.728v0 0zM556 833.76l344.768-229.824-153.984-103.008-190.784 127.616v205.216zM468 833.76v-205.216l-190.752-127.616-154.016 103.008 344.768 229.824zM88 521.632l110.112-73.632-110.112-73.632v147.264zM468 62.24l-344.768 229.824 154.016 102.976 190.752-127.584v-205.216zM512 343.904l-155.616 104.096 155.616 104.096 155.648-104.096-155.648-104.096zM556 62.24v205.216l190.784 127.584 153.984-102.976-344.768-229.824zM936 374.368l-110.080 73.632 110.080 73.632v-147.264z" />
<glyph unicode="&#xe91e;" glyph-name="dailymotion" d="M0-64h1024v1024h-1024v-1024zM883 73.271h-152.629v59.855c-46.885-45.889-94.77-62.848-158.615-62.848-64.843 0-120.708 20.949-167.595 62.848-61.851 54.866-93.772 126.692-93.772 210.489 0 76.815 29.929 145.647 85.792 199.517 49.88 48.881 110.732 73.82 178.568 73.82 64.843 0 114.722-21.946 150.635-67.834v233.434l157.616 32.658v-741.939zM600.687 477.291c-74.82 0-132.679-60.852-132.679-132.678 0-74.82 57.859-131.681 138.664-131.681 67.836 0 124.697 55.864 124.697 129.686 0 76.813-56.861 134.673-130.682 134.673z" />
<glyph unicode="&#xe920;" glyph-name="dribbble-black" d="M756.364 85.365c-4.456 26.369-27.757 154.723-85.138 312.275 141.194 22.576 263.481-16.135 272.513-19.084-19.448-121.852-89.232-226.907-187.375-293.191v0 0zM512.030 10.712c-105.85 0-202.909 37.627-278.594 100.239 5.78-4.696 9.814-7.646 9.814-7.646s83.813 182.778 343.14 273.143c0.963 0.361 1.987 0.602 2.95 0.903 61.535-159.84 86.884-293.732 93.386-331.962-52.443-22.275-110.185-34.677-170.697-34.677v0 0zM74.721 448.030c0 4.636 0.241 9.211 0.361 13.787 7.767-0.181 223.802-5.057 448.93 62.311 12.524-24.503 24.506-49.487 35.464-74.351-5.78-1.565-11.5-3.311-17.22-5.238-235.965-76.218-355.663-288.495-355.663-288.495s0.181-0.181 0.181-0.241c-69.664 77.482-112.052 179.888-112.052 292.227v0 0zM325.438 843.386c5.84-7.766 86.703-117.397 162.388-251.891-209.954-55.809-392.211-53.581-403.711-53.4 28.359 135.458 119.337 247.737 241.324 305.292v0 0zM407.264 872.524v0 0c-0.482-0.181-0.903-0.241-1.385-0.361 0.783 0.12 1.325 0.241 1.325 0.241s0.060 0.060 0.060 0.12zM800.8 776.079c-1.084-1.625-63.341-96.446-228.439-158.275-74.721 137.324-156.848 246.413-163.411 255.082 33.056 8.007 67.556 12.342 103.080 12.342 110.667 0 211.76-41.3 288.77-109.149v0 0zM949.158 452.365c-6.322 1.385-154.32 33.232-304.545 14.328-3.131 7.465-6.202 14.991-9.453 22.516-9.092 21.432-18.906 42.624-29.082 63.454 172.684 70.498 242.769 171.821 243.612 173.025 61.294-74.472 98.444-169.593 99.468-273.324v0 0zM1013.644 551.038c-6.744 32.871-16.859 65.321-29.925 96.265-12.765 30.343-28.72 59.601-47.205 86.934-18.244 27.092-39.317 52.618-62.438 75.736-23.181 23.178-48.65 44.189-75.805 62.491-27.336 18.543-56.598 34.376-86.944 47.26-30.948 13.004-63.341 23.118-96.216 29.801-33.718 6.923-68.399 10.475-103.080 10.475-34.741 0-69.423-3.552-103.141-10.475-32.875-6.683-65.268-16.797-96.216-29.801-30.346-12.884-59.608-28.717-87.004-47.26-27.095-18.302-52.564-39.313-75.745-62.491-23.121-23.118-44.134-48.644-62.438-75.736-18.485-27.332-34.44-56.591-47.205-86.934-13.126-30.945-23.181-63.394-29.925-96.265-6.864-33.654-10.356-68.331-10.356-103.008 0-34.798 3.492-69.475 10.356-103.189 6.744-32.871 16.799-65.261 29.925-96.145 12.765-30.343 28.72-59.722 47.205-87.054 18.304-27.092 39.317-52.497 62.438-75.736 23.181-23.118 48.65-44.069 75.745-62.431 27.396-18.482 56.658-34.376 87.004-47.199 30.948-13.124 63.341-23.118 96.216-29.801 33.718-6.984 68.399-10.475 103.141-10.475 34.681 0 69.363 3.492 103.080 10.475 32.875 6.683 65.268 16.676 96.216 29.801 30.346 12.823 59.608 28.717 86.944 47.199 27.155 18.362 52.624 39.313 75.805 62.431 23.121 23.239 44.195 48.644 62.438 75.736 18.485 27.332 34.44 56.712 47.205 87.054 13.066 30.884 23.181 63.274 29.925 96.145 6.864 33.714 10.356 68.391 10.356 103.189 0 34.677-3.492 69.354-10.356 103.008v0 0z" />
<glyph unicode="&#xe922;" glyph-name="drive" d="M999.62 341.333l-316.943 554.667h-340.528l218.162-381.254-0.838-0.48 98.822-172.933h341.325zM169.693 1.722l-169.693 296.945 317.178 555.065 170.787-298.462-146.626-256.603h0.774l-172.42-296.945zM218.031 0h635.3l170.669 298.667h-632.55l-173.419-298.667z" />
<glyph unicode="&#xe923;" d="M170.677 0l170.654 298.667h682.669l-170.669-298.667z" />
<glyph unicode="&#xe924;" d="M682.677 298.667h341.323l-341.323 597.333h-341.346z" />
<glyph unicode="&#xe925;" d="M0 298.667l170.677-298.667 341.323 597.333-170.669 298.667z" />
<glyph unicode="&#xe926;" glyph-name="dropbox" d="M512 372.624l-210.784-177.333-301.216 198.233 208.288 168.108 303.711-189.008 303.706 189.037 208.288-168.14-301.216-198.233-210.784 177.333zM301.222 928l-301.216-198.233 208.288-168.108 303.712 189.009-210.784 177.333zM512.618 334.471l-211.392-176.817-90.464 59.541v-66.734l301.856-182.461 301.856 182.461v66.734l-90.464-59.541-211.392 176.817zM1024 729.763l-301.216 198.233-210.784-177.333 303.712-189.009 208.288 168.108z" />
<glyph unicode="&#xe928;" glyph-name="envato-black" horiz-adv-x="896" d="M759.622 954.387c45.853-22.496 232.443-425.152 73.264-775.839-127.834-281.6-448.742-281.632-611.414-182.4-138.944 84.8-351.182 351.968-116.222 678.207 9.945 12.384 33.8 11.264 28.418-26.144-3.808-26.56-37.891-217.248 27.159-300.096 29.708-41.44 36.663-12.864 36.663-12.864s-5.067 277.472 205.882 488.127c133.908 128.448 319.617 148.992 356.249 131.008z" />
<glyph unicode="&#xe92a;" glyph-name="evernote" horiz-adv-x="853" d="M635.584 475.643c-13.769 0.48-27.028-0.384-39.395-2.368 3.474 28.192 15.076 62.815 56.16 61.375 45.483-1.6 51.858-44.736 52.017-73.983-19.188 8.608-42.933 14.048-68.782 14.976zM830.074 781.848c-7.618 40.864-31.809 60.991-53.706 68.895-23.586 8.576-71.46 17.44-131.604 24.576-48.383 5.696-105.245 5.248-139.604 4.192-4.112 28.352-23.905 54.239-46.089 63.199-59.029 23.872-150.282 18.112-173.677 11.52-18.614-5.216-39.236-15.936-50.71-32.416-7.681-11.008-12.654-25.152-12.686-44.864 0-11.168 0.319-37.44 0.574-60.8 0.287-23.424 0.606-44.384 0.606-44.544 0-20.832-16.861-37.824-37.738-37.856h-95.715c-20.431 0-36.049-3.456-47.937-8.864-11.952-5.472-20.399-12.8-26.837-21.472-12.781-17.248-15.012-38.496-14.949-60.191 0 0 0.191-17.76 4.462-52.064 3.538-26.56 32.224-212.126 59.475-268.542 10.55-21.952 17.594-31.104 38.343-40.768 46.248-19.904 151.907-42.016 201.406-48.352 49.435-6.336 80.448-19.68 98.934 19.232 0.064 0.096 3.697 9.696 8.701 23.744 16.064 48.832 18.295 92.159 18.295 123.487 0 3.2 4.653 3.328 4.653 0 0-22.112-4.207-100.447 54.726-121.471 23.267-8.288 71.523-15.648 120.544-21.44 44.336-5.12 76.527-22.624 76.527-136.831 0-69.471-14.534-79.007-90.52-79.007-61.611 0-85.101-1.6-85.101 47.52 0 39.712 39.14 35.552 68.113 35.552 12.972 0 3.57 9.664 3.57 34.176 0 24.384 15.172 38.464 0.829 38.816-100.273 2.784-159.27 0.128-159.27-125.759 0-114.303 43.571-135.519 185.852-135.519 111.588 0 150.919 3.68 196.976 147.167 9.116 28.352 31.172 114.783 44.495 259.966 8.446 91.775-7.936 368.797-20.941 438.716zM85.23 761.657h95.779c5.482 0 9.913 4.512 9.913 9.952 0 0.032-1.147 82.399-1.147 105.311v0.288c0 18.816 3.92 35.2 10.773 48.96l3.283 6.144c-0.382-0.032-0.733-0.224-1.116-0.576l-185.98-185.182c-0.351-0.288-0.606-0.704-0.701-1.088 3.857 1.92 9.116 4.512 9.849 4.832 16.192 7.36 35.825 11.36 59.348 11.36z" />
<glyph unicode="&#xe92c;" glyph-name="facebook" d="M546.952-64h-490.435c-31.223 0-56.517 25.31-56.517 56.52v910.963c0 31.218 25.298 56.517 56.517 56.517h910.97c31.211 0 56.513-25.298 56.513-56.517v-910.963c0-31.214-25.306-56.52-56.513-56.52h-260.942v396.549h133.103l19.93 154.542h-153.034v98.665c0 44.744 12.425 75.235 76.586 75.235l81.835 0.036v138.224c-14.153 1.883-62.731 6.091-119.248 6.091-117.989 0-198.767-72.020-198.767-204.28v-113.971h-133.445v-154.542h133.445v-396.549z" />
<glyph unicode="&#xe92e;" glyph-name="fancy" d="M114.46 960c-63.215 0-114.46-51.302-114.46-114.584v-794.83c0-63.286 51.246-114.586 114.46-114.586h795.080c63.214 0 114.459 51.3 114.459 114.586v794.83c0 63.282-51.246 114.584-114.459 114.584h-795.080zM677.786 299.576h-113.553v-133.985c0-28.847-23.386-52.232-52.233-52.232-28.849 0-52.235 23.385-52.235 52.232v133.985h-113.552c-20.068 0-36.337 16.268-36.337 36.335v236.177c0 0.77 0.068 1.522 0.115 2.278 2.427 109.516 91.904 197.565 202.008 197.565s199.581-88.049 202.008-197.565c0.047-0.756 0.115-1.508 0.115-2.278v-236.177c0-20.068-16.269-36.335-36.337-36.335z" />
<glyph unicode="&#xe930;" glyph-name="feedly" horiz-adv-x="1195" d="M670.088 362.017c-56.394-55.784-112.97-111.496-169.035-167.643-15.726-19.126-43.447-13.077-65.025-11.302-20.809 13.258-36.974 32.855-53.687 50.713-11.154 10.469-0.731 24.161 7.863 32.022 56.467 55.712 112.861 111.424 169.035 167.426 10.24 9.889 19.493 21.263 31.891 28.762 12.434 5.289 21.504-7.245 29.769-14.272 18.761-19.923 40.156-37.455 57.271-58.791 7.534-9.527-1.207-20.177-8.082-26.914zM676.013 98.417c-15.799-17.605-32.293-34.883-50.835-49.59-17.042-4.057-35.146-3.115-52.371-0.652-16.567 8.295-27.758 24.234-41.326 36.513-9.655 9.309-24.759 23.292-12.325 36.731 20.992 23.111 43.447 45.171 66.67 66.181 8.631 7.208 21.541 3.622 28.526-4.202 19.858-19.017 39.388-38.361 58.551-58.139 7.534-6.629 11.666-19.199 3.109-26.842zM364.384 329.85c-16.348-19.271-45.093-14.2-67.219-10.795-19.493 15.467-37.34 33.398-53.066 52.561-9.106 10.614 2.56 21.662 9.765 29.16 99.037 97.659 197.707 195.753 296.561 293.557 13.276 12.823 25.308 27.059 40.229 38.035 12.837 6.375 22.748-7.39 31.305-14.707 18.176-19.199 38.766-36.224 55.443-56.762 8.594-10.179-0.841-21.988-8.375-29.269-101.633-100.484-203.339-200.969-304.643-301.779zM1116.081 499.196c-133.889 132.651-267.815 265.23-401.595 397.917-19.566 19.054-37.962 40.788-63.781 51.691-25.637 12.062-55.37 13.801-82.908 7.969-24.101-5.47-45.861-18.547-63.269-35.789-150.53-149.133-301.096-298.302-451.699-447.398-17.335-17.134-30.867-38.542-36.389-62.341-12.361-42.853 3.145-90.885 34.853-121.748 106.131-105.157 212.373-210.206 318.467-315.436 23.699-23.944 57.125-37.89 91.027-37.491 86.822-0.507 173.606 0.072 260.391-0.29 39.059-2.463 78.556 11.374 106.205 39.085 96.184 94.978 192.075 190.319 288.223 285.37 15.653 15.721 32.622 30.464 45.386 48.721 23.406 33.398 27.283 78.424 13.605 116.278-10.679 30.392-36.352 51.365-58.515 73.462z" />
<glyph unicode="&#xe932;" glyph-name="firefox" d="M356.005 741.779c4.004 33.891 26.795 77.851 69.706 97.999-64.472 9.771-116.828-20.151-142.905-58.617-41.377 8.85-66.801 9.335-108.412 1.628-26.405 19.838-57.458 65.045-55.027 112.348-49.96-58.334-60.254-102.321-54.095-154.833-192.29-340.964 66.418-750.972 435.174-750.972 331.298 0.003 523.554 251.157 523.554 508.512 0 173.557-79.253 324.211-160.171 356.784 30.191-32.982 64.49-118.892 57.918-178.342-65.31 168.568-228.381 233.716-283.334 230.247 180.646-69.822 223.878-307.507 207.852-377.657-15.705 82.259-65.822 153.111-95.803 171.84 174.952-406.288-247.571-531.117-376.491-390.113 33.245-8.547 98.871-4.346 148.035 28.291 45.995 30.533 50.323 32.324 79.874 34.598 35.102 2.705-2.115 71.413-78.793 59.79-31.55-4.785-83.54-41.561-147.488-17.322-77.16 29.249-74.732 133.657 4.946 102.244 17.246 22.181 4.516 64.109 4.516 64.109 23.149 21.013 52.373 35.82 70.174 46.227 11.674 6.825 42.444 25.719 40.701 62.458-6.268 4.858-16.399 11.067-39.218 9.769-88.916-5.588-94.862 26.258-100.712 41.011v0z" />
<glyph unicode="&#xe934;" glyph-name="flickr" d="M1020.28 455.199c0-122.376-100.486-221.626-224.669-221.626-124.303 0-224.849 99.25-224.849 221.626 0 122.317 100.546 221.567 224.849 221.567 124.183 0 224.669-99.25 224.669-221.567zM449.458 455.199c0-122.376-100.546-221.626-224.849-221.626-124.123 0-224.609 99.25-224.609 221.626 0 122.317 100.486 221.567 224.609 221.567 124.303 0 224.849-99.25 224.849-221.567z" />
<glyph unicode="&#xe935;" d="M1020.28 455.199c0-122.376-100.486-221.626-224.669-221.626-124.303 0-224.849 99.25-224.849 221.626 0 122.317 100.546 221.567 224.849 221.567 124.183 0 224.669-99.25 224.669-221.567z" />
<glyph unicode="&#xe936;" d="M449.458 455.199c0-122.376-100.546-221.626-224.849-221.626-124.123 0-224.609 99.25-224.609 221.626 0 122.317 100.486 221.567 224.609 221.567 124.303 0 224.849-99.25 224.849-221.567z" />
<glyph unicode="&#xe937;" glyph-name="foursquare-black" horiz-adv-x="725" d="M604.337 812.132l-24.257-118.434c-2.772-12.615-14.554-23.827-29.108-23.827h-210.687c-23.564 0-42.969-19.622-42.969-43.449v-25.929c0-23.827 19.405-43.449 42.969-43.449h178.114c16.634 0 30.494-16.118 27.028-33.638-3.465-18.222-22.177-110.726-24.257-120.537-1.386-10.512-12.474-23.827-29.108-23.827h-145.54c-30.495-0.701-36.731-1.401-54.751-23.827s-177.42-224.255-177.42-224.255c-1.386-2.102-2.772-1.401-2.772 0.701v686.079c0 16.117 13.167 29.433 29.108 29.433h437.314c15.247 0 30.494-15.418 26.335-35.040zM636.218 960h-539.885c-74.156 0-96.333-56.765-96.333-92.505v-867.582c0-42.748 21.485-55.363 33.266-60.267s42.969-8.41 65.147 14.016c0 0 256.428 302.042 260.586 306.947s6.237 4.906 9.009 4.906h162.173c69.306 0 82.473 48.355 90.096 77.788 6.238 24.528 77.621 374.924 99.798 485.65 16.634 85.496-4.85 131.048-83.858 131.048z" />
<glyph unicode="&#xe939;" glyph-name="github" d="M511.968 949.333c-282.72 0-511.968-230.125-511.968-514.062 0-227.073 146.688-419.737 350.176-487.718 25.6-4.723 34.944 11.148 34.944 24.77 0 12.208-0.448 44.528-0.704 87.417-142.432-31.067-172.48 68.912-172.48 68.912-23.264 59.37-56.832 75.177-56.832 75.177-46.496 31.902 3.52 31.259 3.52 31.259 51.36-3.63 78.4-52.977 78.4-52.977 45.696-78.55 119.84-55.869 149.024-42.697 4.64 33.219 17.888 55.869 32.512 68.719-113.696 12.979-233.216 57.057-233.216 254.027 0 56.126 19.936 102.003 52.704 137.953-5.28 13.011-22.848 65.25 4.992 136.025 0 0 43.008 13.815 140.8-52.688 40.864 11.405 84.64 17.091 128.192 17.316 43.488-0.225 87.296-5.911 128.192-17.316 97.728 66.503 140.64 52.688 140.64 52.688 27.936-70.775 10.368-123.014 5.088-136.025 32.832-35.95 52.64-81.827 52.64-137.953 0-197.452-119.712-240.919-233.76-253.641 18.368-15.871 34.752-47.226 34.752-95.192 0-68.719-0.64-124.138-0.64-141.005 0-13.75 9.216-29.749 35.2-24.706 203.296 68.109 349.856 260.645 349.856 487.653 0 283.937-229.248 514.062-512.032 514.062z" />
<glyph unicode="&#xe93b;" glyph-name="google" d="M519.051 549.386v-202.772c0 0 195.404 0.264 274.967 0.264-43.085-131.452-110.080-203.036-274.967-203.036-166.867 0-297.104 136.177-297.104 304.158s130.237 304.158 297.104 304.158c88.225 0 145.203-31.217 197.468-74.727 41.836 42.116 38.342 48.118 144.78 149.306-90.355 82.792-210.445 133.262-342.249 133.262-280.894 0-508.602-229.229-508.602-512 0-282.766 227.707-512 508.602-512 419.858 0 522.48 368.032 488.459 613.386h-488.459z" />
<glyph unicode="&#xe93c;" horiz-adv-x="1003" d="M209.648 448c0 32.518 5.401 63.693 15.040 92.934l-168.721 128.842c-32.883-66.765-51.409-141.995-51.409-221.776 0-79.713 18.504-154.897 51.341-221.616l168.63 129.092c-9.548 29.104-14.88 60.166-14.88 92.524z" />
<glyph unicode="&#xe93d;" horiz-adv-x="1003" d="M505.891 743.822c70.642 0 134.448-25.031 184.582-65.991l145.842 145.636c-88.873 77.369-202.812 125.156-330.424 125.156-198.118 0-368.389-113.3-449.924-278.847l168.721-128.842c38.876 118.010 149.694 202.889 281.202 202.889z" />
<glyph unicode="&#xe93e;" horiz-adv-x="1003" d="M505.891 152.178c-131.509 0-242.326 84.878-281.202 202.889l-168.721-128.819c81.535-165.569 251.806-278.869 449.924-278.869 122.28 0 239.022 43.418 326.641 124.769l-160.153 123.813c-45.188-28.467-102.090-43.782-166.488-43.782z" />
<glyph unicode="&#xe93f;" horiz-adv-x="1003" d="M984.436 448c0 29.582-4.558 61.44-11.394 91.022h-467.152v-193.422h268.897c-13.445-65.946-50.042-116.645-102.409-149.641l160.153-123.813c92.040 85.424 151.904 212.673 151.904 375.854z" />
<glyph unicode="&#xe940;" glyph-name="googleplus" d="M911.296 506.067v112.907h-80.503v-112.907h-115.925v-80.648h115.925v-116.133h80.503v116.133h112.704v80.648h-112.704zM325.233 512.518v-129.037c0 0 124.954 0.168 175.832 0.168-27.551-83.651-70.392-129.205-175.832-129.205-106.705 0-189.987 86.658-189.987 193.555s83.282 193.555 189.987 193.555c56.417 0 92.852-19.865 126.274-47.553 26.753 26.801 24.518 30.62 92.582 95.013-57.779 52.686-134.572 84.803-218.856 84.803-179.622 0-325.233-145.873-325.233-325.818 0-179.942 145.611-325.818 325.233-325.818 268.484 0 334.107 234.202 312.352 390.337h-312.352z" />
<glyph unicode="&#xe942;" glyph-name="hanghout" horiz-adv-x="875" d="M867.874 598.782c-15.477 84.733-52.425 158.744-110.791 221.905-24.636 26.664-52.242 49.834-82.708 69.504-56.753 36.635-118.576 59.082-185.619 67.033-8.173 0.974-16.463 0.846-24.52 2.777h-57.844c-0.626-1.463-1.967-0.929-3.031-1.029-14.895-1.319-29.717-3.021-44.418-5.82-107.427-20.432-195.648-73.399-263.932-158.956-56.165-70.361-87.096-151.077-93.779-241.074-3.236-43.619-0.1-86.831 9.42-129.47 7.071-31.717 17.632-62.359 31.829-91.65 1.247-2.493 2.477-4.986 3.746-7.478 23.323-46.117 53.323-87.215 90.92-122.71 19.793-18.685 40.949-35.589 63.851-50.196 70.174-44.726 146.775-68.179 229.993-69.226 5.109-0.072 6.5-1.335 6.467-6.577-0.233-44.726-0.133-89.457-0.122-134.189 0.006-1.736 0.139-3.467 0.238-5.626 1.441 0.59 2.344 0.924 3.214 1.335 83.655 39.468 160.467 89.341 228.945 151.856 13.626 12.436 26.664 25.468 39.204 39.039 5.369 5.804 10.695 11.707 16.075 17.505 8.312 8.925 15.504 18.896 23.339 28.295 9.049 10.839 17.172 22.363 25.185 33.959 17.715 25.629 33.535 52.366 46.834 80.61 6.727 14.278 13.133 28.667 18.801 43.396 0.188 0.278 0.443 0.523 0.565 0.824 15.449 40.33 25.351 82.062 30.621 124.88 1.84 14.912 3.031 29.919 3.785 44.915 1.607 32.29-0.471 64.396-6.267 96.168v0zM281.777 325.218c-5.918-0.868-9.775 2.432-11.98 7.79 0.022 16.532 0.039 33.041 0.061 49.567 0.288 4.863-1.662 10.077 2.216 14.367 1.923 2.126 4.1 3.583 7.043 4.318 8.617 2.181 17.349 3.923 25.196 8.625 14.451 8.664 23.445 21.167 27.434 37.464 0.621 2.565 1.214 5.147 1.806 7.723-34.699 0.067-69.387 0.128-104.086 0.173-3.003 0.006-5.962 0.111-8.888 0.924-8.844 2.459-15.615 10.561-15.626 19.725-0.066 52.683 0.039 105.371 0.078 158.054-0.726 8.419 0.006 16.309 7.054 22.324 3.829 3.255 8.035 5.225 13.066 5.225 51.018 0.011 102.035-0.028 153.053 0.028 13.504 0.022 21.101-4.211 21.101-27.577 0-3.887 0.438-122.109 0-179.516-0.283-38.099-15.055-70.138-42.828-96.118-1.452-1.352-2.854-2.76-4.272-4.14-14.385-11.073-29.956-19.815-47.61-24.611-7.508-2.048-15.166-3.222-22.819-4.346zM584.897 332.68c-0.366-0.211-0.737-0.423-1.103-0.629-9.874-2.804-19.837-5.13-30.022-6.622-7.769-1.146-13.642 3.261-13.737 11.106-0.078 5.498-0.116 11.006-0.161 16.509 0.094 9.854 0.188 19.709 0.283 29.558-0.044 2.176-0.122 4.335-0.116 6.499 0.011 7.567 2.909 10.761 12.279 12.909 11.88 2.732 23.057 6.583 32.305 15.202 11.099 10.35 16.701 23.27 19.25 37.871-32.050 0.067-64.089 0.122-96.151 0.184-3.485 0.006-6.976-0.045-10.467 0.017-13.088 0.217-22.048 9.304-22.048 22.519 0.017 52.032 0.089 104.058 0.122 156.096 0 0.501-0.055 1.002-0.089 1.502-1.008 9.738 1.779 17.717 10.395 23.125 3.347 2.114 6.987 2.982 10.839 2.982 50.68 0.028 101.354-0.017 152.039 0.045 13.498 0.017 21.178-11.95 21.178-27.655 0-7.228 0.050-122.209 0-179.722-0.044-51.375-32.106-99.451-79.361-119.188-1.191-0.512-2.327-1.174-3.491-1.764 0.842-1.046 1.851-1.335 2.898-1.374-1.047 0.033-2.061 0.328-2.898 1.374 0 0-1.286-0.356-1.945-0.545z" />
<glyph unicode="&#xe944;" glyph-name="instagram" d="M512.001 960c-139.052 0-156.488-0.589-211.098-3.081-54.496-2.486-91.716-11.142-124.283-23.799-33.669-13.082-62.222-30.589-90.687-59.053-28.464-28.466-45.971-57.019-59.053-90.687-12.658-32.567-21.314-69.786-23.799-124.283-2.492-54.61-3.081-72.046-3.081-211.098 0-139.050 0.589-156.486 3.081-211.096 2.486-54.496 11.142-91.716 23.799-124.283 13.082-33.669 30.589-62.222 59.053-90.687 28.466-28.464 57.019-45.971 90.687-59.055 32.567-12.656 69.786-21.312 124.283-23.797 54.61-2.492 72.046-3.081 211.098-3.081 139.050 0 156.486 0.589 211.096 3.081 54.496 2.486 91.716 11.142 124.283 23.797 33.669 13.085 62.222 30.591 90.687 59.055 28.464 28.466 45.971 57.019 59.055 90.687 12.656 32.567 21.312 69.786 23.797 124.283 2.492 54.61 3.081 72.046 3.081 211.096 0 139.052-0.589 156.488-3.081 211.098-2.486 54.496-11.142 91.716-23.797 124.283-13.085 33.669-30.591 62.222-59.055 90.687-28.466 28.464-57.019 45.971-90.687 59.053-32.567 12.658-69.786 21.314-124.283 23.799-54.61 2.492-72.046 3.081-211.096 3.081zM512.001 867.748c136.709 0 152.903-0.522 206.891-2.986 49.919-2.276 77.030-10.617 95.071-17.629 23.899-9.288 40.955-20.383 58.87-38.3 17.918-17.915 29.012-34.971 38.3-58.87 7.012-18.041 15.353-45.152 17.629-95.071 2.463-53.988 2.986-70.182 2.986-206.893 0-136.709-0.522-152.903-2.986-206.891-2.276-49.919-10.617-77.030-17.629-95.071-9.288-23.899-20.383-40.955-38.3-58.87-17.915-17.918-34.971-29.012-58.87-38.3-18.041-7.012-45.152-15.353-95.071-17.629-53.98-2.463-70.172-2.986-206.891-2.986-136.721 0-152.911 0.522-206.893 2.986-49.919 2.276-77.030 10.617-95.071 17.629-23.899 9.288-40.955 20.383-58.87 38.3-17.915 17.915-29.012 34.971-38.3 58.87-7.012 18.041-15.353 45.152-17.629 95.071-2.463 53.988-2.986 70.182-2.986 206.891 0 136.711 0.522 152.905 2.986 206.893 2.276 49.919 10.617 77.030 17.629 95.071 9.288 23.899 20.383 40.955 38.3 58.87 17.915 17.918 34.971 29.012 58.87 38.3 18.041 7.012 45.152 15.353 95.071 17.629 53.988 2.463 70.182 2.986 206.893 2.986zM512.001 710.919c-145.208 0-262.92-117.712-262.92-262.92 0-145.206 117.712-262.918 262.92-262.918 145.206 0 262.918 117.712 262.918 262.918 0 145.208-117.712 262.92-262.918 262.92zM512.001 277.333c-94.258 0-170.668 76.41-170.668 170.666 0 94.258 76.41 170.668 170.668 170.668 94.256 0 170.666-76.41 170.666-170.668 0-94.256-76.41-170.666-170.666-170.666zM846.747 721.306c0-33.933-27.508-61.439-61.441-61.439-33.931 0-61.439 27.506-61.439 61.439s27.508 61.441 61.439 61.441c33.933 0 61.441-27.508 61.441-61.441z" />
<glyph unicode="&#xe946;" glyph-name="internetexplorer" d="M565.594 171.601c-112.692 0-192.952 97.692-195.748 197.008h653.272c9.974 213.882-63.997 365.567-253.492 471.375 27.685 30.287 254.494 109.988 196.449-106.631l22.289-32.227c98.388 298.068-197.127 281.861-392.669 187.264-281.846 0.929-441.428-175.428-485.289-356.423 76.189 108.801 174.676 173.278 238.907 191.207-367.588-294.021-538.397-942.502-39.195-736.98l-34.647 20.772c-300.417-94.234-184.342 172.086-126.529 210.496 69.204-140.791 216.66-253.312 397.051-253.312 229.58 0 400.125 117.915 467.791 313.495h-265.037c-38.268-67.794-91.462-106.042-183.154-106.042v0zM565.594 676.533c112.69 0 187.817-87.945 190.615-175.196h-383.562c3.733 74.256 72.557 175.196 192.947 175.196v0z" />
<glyph unicode="&#xe948;" glyph-name="invision" d="M931.173 960v0c51.266 0 92.827-41.561 92.827-92.827v-838.346c0-51.266-41.561-92.827-92.827-92.827h-838.346c-51.266 0-92.827 41.561-92.827 92.827v838.346c0 51.266 41.561 92.827 92.827 92.827h838.346zM342.222 637.82c34.040 0 62.553 26.682 62.553 61.649 0 34.944-28.513 61.618-62.553 61.618s-62.549-26.674-62.549-61.618c0-34.967 28.509-61.649 62.549-61.649v0zM212.515 307.739c-3.673-15.639-5.52-32.528-5.52-46.305 0-54.284 29.436-90.321 91.993-90.321 51.883 0 93.94 30.813 124.222 80.559l-18.49-74.213h103.021l58.88 236.156c14.716 59.795 43.233 90.83 86.474 90.83 34.036 0 55.195-21.167 55.195-56.111 0-10.128-0.923-21.155-4.6-33.117l-30.363-108.548c-4.6-15.639-6.431-31.29-6.431-45.995 0-51.534 30.352-89.228 93.824-89.228 54.276 0 97.509 34.94 121.429 118.656l-40.471 15.628c-20.243-56.087-37.721-66.226-51.518-66.226-13.801 0-21.163 9.193-21.163 27.582 0 8.277 1.846 17.466 4.6 28.528l29.444 105.755c7.354 24.832 10.12 46.852 10.12 67.084 0 79.112-47.841 120.398-105.794 120.398-54.272 0-109.471-48.954-137.061-100.476l20.232 92.478h-157.3l-22.082-81.455h73.596l-45.316-181.442c-35.592-79.112-100.965-80.396-109.168-78.557-13.471 3.037-22.086 8.153-22.086 25.658 0 10.1 1.839 24.607 6.439 42.1l69 273.695h-174.778l-22.082-81.455h72.669l-46.914-191.659z" />
<glyph unicode="&#xe94a;" glyph-name="linkedIn" d="M1024-17.455h-226.318v327.252c0 85.658-35.402 144.134-113.249 144.134-59.545 0-92.659-39.461-108.071-77.491-5.78-13.65-4.877-32.666-4.877-51.681v-342.214h-224.211c0 0 2.89 579.695 0 632.389h224.211v-99.249c13.246 43.395 84.892 105.329 199.225 105.329 141.848 0 253.291-90.963 253.291-286.837v-351.632zM120.534 694.035h-1.445c-72.248 0-119.089 48.343-119.089 109.62 0 62.47 48.226 109.799 121.919 109.799 73.633 0 118.909-47.21 120.354-109.62 0-61.278-46.721-109.799-121.738-109.799v0 0zM25.829 614.934h199.586v-632.389h-199.586v632.389z" />
<glyph unicode="&#xe94c;" glyph-name="magento" d="M511.73 960l-426.396-262.543v-498.881l110.739-66.298v498.937l315.746 195.101 317.336-195.583-0.143-497.714 109.657 65.557v498.881l-426.937 262.543zM568.17 69.56l-56.44-35.056-56.484 35.247v582.656l-146.26-91.515v-498.825l202.745-126.066 204.456 126.964v498.241l-148.016 91.65v-583.295z" />
<glyph unicode="&#xe94e;" glyph-name="medium" d="M1012.784 718.123c-0.193 0.153-0.348 0.355-0.589 0.47l-305.326 151.519c-2.058 1.026-4.222 1.716-6.414 2.272-2.753 0.7-5.564 1.131-8.385 1.131-11.679 0-23.301-5.82-29.599-15.964l-175.577-283.192 220.344-355.37 306.485 494.301c1.014 1.649 0.531 3.682-0.937 4.832zM390.183 638.869v-322.359l288.691-143.264-288.691 465.623zM722.248 151.721l237.636-117.923c30.923-15.35 55.992-4.602 55.992 23.989v567.505l-293.627-473.571zM340.065 717.663l-297.858 147.818c-5.381 2.665-10.501 3.931-15.138 3.931-13.042 0-22.19-10.019-22.19-26.827v-638.274c0-17.086 12.597-37.317 27.996-44.958l262.347-130.186c6.724-3.337 13.128-4.919 18.915-4.919 16.307 0 27.745 12.522 27.745 33.539v656.971c0 1.227-0.705 2.359-1.816 2.905z" />
<glyph unicode="&#xe94f;" d="M707.97 874.935c-15.399 7.746-27.996-0.087-27.996-17.406v-688.936l281.011-141.356c30.923-15.55 55.992-4.665 55.992 24.316v663.425c0 2.77-1.565 5.316-4.028 6.56l-304.978 153.397z" />
<glyph unicode="&#xe950;" d="M342.982 338.103l320.589 524.1c9.023 14.753 29 20.477 44.399 12.731l305.326-153.572c1.98-1.001 2.686-3.489 1.526-5.384l-334.848-547.386-336.993 169.51z" />
<glyph unicode="&#xe951;" d="M52.639 865.546c-25.668 12.916-34.362 3.363-19.321-21.225l309.663-506.218 336.993-169.51-336.268 549.728c-0.473 0.777-1.159 1.399-1.971 1.808l-289.096 145.418z" />
<glyph unicode="&#xe952;" d="M342.982 51.552c0-28.864-21.002-41.916-46.66-29.010l-262.347 131.968c-15.399 7.746-27.996 28.252-27.996 45.57v646.952c0 23.091 16.799 33.539 37.328 23.208l297.858-149.821c1.111-0.564 1.816-1.701 1.816-2.945v-665.923z" />
<glyph unicode="&#xe953;" glyph-name="messenger" d="M512 960c-282.77 0-512-212.249-512-474.074 0-149.191 74.453-282.267 190.807-369.168v-180.758l174.331 95.678c46.525-12.876 95.814-19.826 146.861-19.826 282.77 0 512 212.249 512 474.074s-229.23 474.074-512 474.074v0zM562.882 321.58l-130.385 139.062-254.41-139.062 279.851 297.086 133.565-139.062 251.23 139.062-279.851-297.086z" />
<glyph unicode="&#xe955;" glyph-name="opera" horiz-adv-x="981" d="M490.819 960c-278.979 0-490.819-194.023-490.819-507.116 0-270.515 196.234-516.884 490.653-516.884 294.485 0 490.681 246.369 490.681 516.884-0.003 312.733-211.53 507.116-490.514 507.116v0zM490.807 869.543c157.95 0 190.074-213.308 190.074-406.995 0-179.419-17.874-419.619-188.135-419.619s-192.277 242.551-192.277 421.955c0 193.673 32.373 404.659 190.338 404.659v0z" />
<glyph unicode="&#xe957;" glyph-name="paypal" horiz-adv-x="875" d="M744.782 882.785c-47.804 54.047-134.185 77.215-244.727 77.215h-320.754c-22.611 0-41.836-16.32-45.384-38.431l-133.572-840.371c-2.645-16.576 10.29-31.584 27.224-31.584h198.020l49.739 312.955-1.548-9.792c3.548 22.112 22.644 38.431 45.223 38.431h94.091c184.892 0 329.625 74.495 371.913 289.979 1.258 6.4 3.29 18.656 3.29 18.656 11.999 79.743-0.097 133.854-43.513 182.941zM838.422 659.029c-45.997-212.157-192.633-324.443-425.329-324.443h-84.382l-62.932-398.586h136.863c19.773 0 36.578 14.272 39.675 33.631l1.613 8.448 31.482 197.821 2.032 10.912c3.064 19.36 19.902 33.631 39.643 33.631h24.998c161.7 0 288.337 65.183 325.335 253.66 14.838 75.647 7.709 139.070-28.998 184.925z" />
<glyph unicode="&#xe959;" glyph-name="periscope" horiz-adv-x="789" d="M789.333 560.113c0-297.351-315.6-624.113-394.663-624.113-79.056 0-394.67 326.762-394.67 624.113 0 220.853 176.695 399.887 394.67 399.887 217.982 0 394.663-179.034 394.663-399.887zM394.67 801.421c-18.979 0-37.416-2.303-55.116-6.534 32.099-15.949 54.254-49.276 54.254-87.94 0-54.12-43.302-97.995-96.715-97.995-51.419 0-93.351 40.692-96.416 92.010-28.576-39.96-45.47-89.052-45.47-142.173 0-134.005 107.208-242.632 239.462-242.632s239.462 108.627 239.462 242.632c0 134.005-107.208 242.632-239.462 242.632z" />
<glyph unicode="&#xe95b;" glyph-name="photoshop" d="M0 949.333v-1002.667h1024v1002.667h-1024zM706.56 546.392c-36.772 0-49.337-18.741-49.337-34.202 0-16.867 8.377-28.581 57.716-54.35 73.076-35.61 95.884-69.812 95.884-119.946 0-74.965-56.785-115.259-133.586-115.259-40.495 0-75.405 8.434-95.418 20.146-3.258 1.405-3.723 3.748-3.723 7.497v68.875c0 4.685 2.327 6.092 5.587 3.748 29.323-19.211 62.835-27.644 93.555-27.644 36.772 0 52.131 15.461 52.131 36.546 0 16.867-10.706 31.86-57.718 56.224-66.095 31.86-93.555 64.188-93.555 118.070 0 60.442 47.012 110.575 128.465 110.575 40.029 0 67.957-6.092 83.316-13.119 3.723-2.342 4.654-6.090 4.654-9.369v-64.188c0-3.748-2.327-6.092-6.983-4.685-20.479 13.115-50.733 21.081-80.987 21.081v0 0zM306.269 490.637c10.706-0.937 19.085-0.937 37.702-0.937 54.46 0 105.659 19.209 105.659 93.706 0 59.504-36.772 89.491-98.676 89.491-18.618 0-36.306-0.937-44.685-1.405v-180.855zM223.42 739.429c0 3.279 6.517 5.624 10.239 5.624 29.791 1.405 74.009 2.342 120.088 2.342 128.93 0 179.198-71.217 179.198-162.114 0-119.007-85.643-170.078-190.835-170.078-17.687 0-23.737 0.937-36.306 0.937v-179.918c0-3.748-1.396-5.622-5.585-5.622h-71.214c-3.723 0-5.587 1.405-5.587 5.622v503.207h0.002z" />
<glyph unicode="&#xe95d;" glyph-name="pinterest" d="M512.030 960c-282.749 0-512.030-229.221-512.030-512.030 0-209.593 126.081-389.743 306.532-468.919-1.445 35.705-0.241 78.695 8.851 117.591 9.875 41.545 65.87 278.955 65.87 278.955s-16.317 32.694-16.317 81.043c0 75.865 44.014 132.523 98.745 132.523 46.543 0 69.061-34.982 69.061-76.889 0-46.784-29.864-116.808-45.218-181.655-12.825-54.37 27.215-98.625 80.802-98.625 96.999 0 162.328 124.576 162.328 272.212 0 112.172-75.564 196.166-213.025 196.166-155.283 0-252.041-115.785-252.041-245.117 0-44.676 13.126-76.106 33.718-100.431 9.513-11.259 10.778-15.715 7.346-28.6-2.408-9.333-8.068-32.092-10.416-41.064-3.432-12.945-13.909-17.642-25.589-12.825-71.59 29.202-104.887 107.536-104.887 195.624 0 145.408 122.649 319.898 365.899 319.898 195.503 0 324.173-141.555 324.173-293.346 0-200.862-111.63-350.907-276.306-350.907-55.213 0-107.235 29.864-125.057 63.763 0 0-29.744-117.952-36.006-140.712-10.838-39.438-32.092-78.936-51.54-109.643 46.061-13.608 94.711-21.013 145.107-21.013 282.749 0 511.97 229.221 511.97 511.97 0 282.809-229.221 512.030-511.97 512.030z" />
<glyph unicode="&#xe95f;" glyph-name="pocket" d="M511.685 906.647c138.952 0 277.905 0.042 416.857-0.024 43.056-0.021 80.069-27.803 90.791-68.164 1.693-6.372 2.759-13.124 2.762-19.701 0.065-108.57 0.599-217.147-0.38-325.711-1-110.922-34.554-211.342-102.827-299.031-75.977-97.588-173.965-161.862-294.731-189.77-277.301-64.080-542.196 114.897-607.582 365.39-8.716 33.392-14.652 67.279-14.94 101.766-0.965 115.486-1.685 230.979-1.633 346.469 0.024 48.617 43.393 88.712 94.026 88.746 139.219 0.090 278.437 0.030 417.656 0.030v0zM511.861 439.903c-2.588 2.405-4.551 4.178-6.459 6.010-61.873 59.436-123.674 118.948-185.636 178.289-28.381 27.181-71.945 26.177-98.985-1.92-26.632-27.671-26.268-71.506 1.744-98.569 80.292-77.568 160.811-154.904 241.468-232.093 26.873-25.717 68.257-25.453 95.516-0.062 10.917 10.168 21.568 20.623 32.325 30.962 68.969 66.28 137.889 132.611 206.931 198.816 16.592 15.91 25.277 35.129 23.098 58.011-2.772 29.092-18.116 50.039-45.657 60.069-27.461 10.001-52.432 3.961-73.618-16.277-34.682-33.125-69.199-66.424-103.78-99.656-28.8-27.675-57.593-55.36-86.949-83.58v0z" />
<glyph unicode="&#xe961;" glyph-name="principle" horiz-adv-x="768" d="M0.081 104.060l-0.081 474.333c0 210.755 171.923 381.606 384 381.606s384-170.851 384-381.606c0-210.755-168.334-381.606-380.411-381.606-67.389 0-122.019 54.289-122.019 121.258s54.63 121.258 122.019 121.258c77.299 0 136.374 62.273 136.374 139.090s-62.663 139.090-139.963 139.090c-77.299 0-139.963-62.273-139.963-139.070l0.089-521.146c0.020-117.519-128.925-149.627-199.363-96.31 20.653 14.151 34.19 37.825 34.19 64.641 0 43.306-35.305 78.417-78.872 78.461zM387.589 239.584c43.605 0 78.953 35.128 78.953 78.461s-35.349 78.461-78.953 78.461c-43.605 0-78.953-35.128-78.953-78.461s35.349-78.461 78.953-78.461z" />
<glyph unicode="&#xe963;" glyph-name="productHunt" d="M580.256 345.6v0h-145.056v-153.6h-102.4v512h247.456c98.976 0 179.2-80.224 179.2-179.2s-80.224-179.2-179.2-179.2zM512 960c-282.784 0-512-229.216-512-512s229.216-512 512-512c282.752 0 512 229.216 512 512s-229.248 512-512 512zM580.256 601.6v0h-145.056v-153.6h145.056c42.432 0 76.8 34.4 76.8 76.8s-34.368 76.8-76.8 76.8z" />
<glyph unicode="&#xe965;" glyph-name="rdio" d="M873.264 505.458c0.82-17.618 2.099-34.738 2.341-51.874 2.796-197.052-127.52-367.108-319.813-415.606-131.294-33.114-256.885-16.788-371.151 59.312-101.658 67.705-161.873 164.126-179.856 286.104-32.819 222.626 106.177 427.357 323.728 478.301 75.626 17.71 151.102 17.404 226.454-1.642 2.546-0.644 5.058-1.421 7.969-2.244v-247.63c-15.437 4.878-30.517 11.072-46.193 14.355-78.738 16.484-148.491-3.786-209.242-55.817-36.081-30.902-62.145-69.186-73.109-116.363-15.864-68.263 12.27-130.258 74.427-161.599 66.365-33.466 134.087-32.075 200.616-0.839 62.796 29.484 107.877 76.852 128.936 144.544 5.393 17.334 7.114 36.442 7.222 54.755 0.643 109.138 0.317 218.281 0.317 327.422v10.44c13.138-7.498 25.15-13.686 36.491-20.943 49.631-31.756 100.030-62.063 154.096-85.627 37.904-16.52 76.765-29.965 117.896-35.35 12.607-1.652 25.404-2.118 38.132-2.458 17.701-0.473 27.989-10.585 28.506-28.646 0.469-16.423-4.897-31.241-12.663-45.154-28.174-50.477-71.283-82.102-124.92-100.205-3.493-1.179-7.026-2.237-10.184-3.238z" />
<glyph unicode="&#xe967;" glyph-name="reddit" d="M664.32 313.050c-38.272 0-70.432 30.757-70.432 68.68s32.16 69.695 70.432 69.695c38.272 0 69.312-31.772 69.312-69.695s-31.040-68.68-69.312-68.68zM680.576 179.748c-35.648-35.291-90.624-52.446-168.064-52.446-0.16 0-0.352 0.032-0.544 0.032-0.16 0-0.352-0.032-0.544-0.032-77.44 0-132.384 17.154-168 52.446-10.944 10.844-10.944 28.379 0 39.191 10.912 10.813 28.608 10.813 39.552 0 24.576-24.352 66.592-36.211 128.448-36.211 0.192 0 0.384-0.032 0.544-0.032 0.192 0 0.384 0.032 0.544 0.032 61.856 0 103.904 11.859 128.512 36.211 10.944 10.844 28.64 10.813 39.552 0 10.912-10.844 10.912-28.379 0-39.191zM290.368 381.73c0 37.891 32.096 69.695 70.336 69.695 38.272 0 69.312-31.803 69.312-69.695 0-37.923-31.040-68.68-69.312-68.68-38.24 0-70.336 30.757-70.336 68.68zM853.248 819.241c25.92 0 47.008-20.896 47.008-46.548 0-25.684-21.088-46.579-47.008-46.579s-47.008 20.896-47.008 46.579c0 25.652 21.088 46.548 47.008 46.548zM1024 457.164c0 67.253-55.2 121.95-123.072 121.95-29.376 0-56.352-10.273-77.536-27.364-75.040 46.738-170.272 74.895-272.352 80.856l53.248 166.817 146.336-34.15c3.84-52.794 48.384-94.586 102.624-94.586 56.736 0 102.912 45.755 102.912 102.006 0 56.219-46.176 101.974-102.912 101.974-39.68 0-74.176-22.386-91.36-55.077l-170.048 39.667c-14.24 3.329-28.64-4.788-33.056-18.613l-66.112-207.055c-109.984-2.663-213.376-30.916-293.92-80.381-20.896 16.203-47.168 25.906-75.68 25.906-67.872 0-123.072-54.697-123.072-121.95 0-41.57 21.12-78.319 53.28-100.325-1.344-9.671-2.048-19.405-2.048-29.267 0-84.059 49.312-162.251 138.848-220.151 85.824-55.521 199.424-86.088 319.84-86.088s234.016 30.567 319.84 86.088c89.536 57.899 138.848 136.092 138.848 220.151 0 8.973-0.608 17.883-1.728 26.73 34.304 21.657 57.12 59.675 57.12 102.862z" />
<glyph unicode="&#xe969;" glyph-name="RSS" d="M0.011 82.286c0 80.786 65.499 146.286 146.284 146.286s146.284-65.499 146.284-146.286c0-80.786-65.499-146.286-146.284-146.286s-146.284 65.499-146.284 146.286zM1024-64h-195.033c0 457.106-371.854 828.965-828.956 828.965v195.035c564.62 0 1023.989-459.374 1023.989-1024zM682.672-64h-195.033c0 268.873-218.768 487.607-487.638 487.607v195.072c376.426 0 682.672-306.249 682.672-682.679z" />
<glyph unicode="&#xe96b;" d="M1024 448c0-282.77-229.23-512-512-512s-512 229.23-512 512c0 282.77 229.23 512 512 512s512-229.23 512-512z" />
<glyph unicode="&#xe96c;" d="M841.53 767.93l-275.3-368.827-368.827-275.3 275.3 368.827 368.827 275.3z" />
<glyph unicode="&#xe96d;" d="M1024 448c0-282.77-229.23-512-512-512s-512 229.23-512 512c0 282.77 229.23 512 512 512s512-229.23 512-512z" />
<glyph unicode="&#xe96e;" d="M189.936 125.936l368.827 275.3-68.284 96.709z" />
<glyph unicode="&#xe96f;" d="M834.064 770.064l-275.3-368.827-55.963 55.963z" />
<glyph unicode="&#xe970;" d="M189.936 125.936l275.3 368.827 46.763-46.763z" />
<glyph unicode="&#xe971;" d="M465.237 494.763l368.827 275.3-322.064-322.064z" />
<glyph unicode="&#xe972;" glyph-name="scoopit" d="M0-64v1024h1024v-1024h-1024zM668.937 651.157l18.074-355.524c26.402 0.523 70.094 0.373 96.496 0.112l17.888 356.682 0.336 143.143h-132.869l0.075-144.413zM552.35 795.458l-132.421 0.075 0.187-174.849-198.071 0.037 0.299-257.12 0.037-257.419h131.487l-0.373 423.791 66.36 0.037-0.149-304.212c0-15.349 0.934-30.66 2.913-45.897 5.49-43.768 24.199-66.362 64.866-74.429 44.812-8.888 95.936-4.295 140.898 0.523l0.187 90.562c-3.025-0.075-30.211-0.075-33.198 0-29.165 1.008-42.609 13.332-42.758 42.536l-0.373 290.955 76.293-0.037 0.037 90.263-76.405 0.037 0.187 175.148zM353.009 795.458c-37.456-0.411-92.799-0.336-130.217 0l-0.224-113.342h130.329l0.112 113.342zM668.974 233.49v-127.122h132.234v127.122h-132.234z" />
<glyph unicode="&#xe974;" glyph-name="shopify" horiz-adv-x="896" d="M658.071 810.781c16.78-16.744 35.796-35.709 35.796-35.709s78.299-5.824 81.993-6.144c3.726-0.32 8.215-3.168 8.916-8.32s111.224-756.16 111.224-756.16l-271.209-58.954 33.28 865.287zM616.467 839.227c-2.078-0.269-3.88-0.679-5.134-1.051-0.669-0.192-11.877-3.68-30.441-9.44-18.182 52.544-50.247 100.832-106.639 100.832-1.56 0-3.184-0.064-4.776-0.16-16.048 21.312-35.918 30.592-53.080 30.592-131.412 0-194.204-165.12-213.882-248.992-51.074-15.904-87.342-27.2-91.959-28.672-28.53-8.992-29.422-9.888-33.147-36.864-2.834-20.448-77.408-600.064-77.408-600.064l581.733-109.274 34.734 903.093zM465.179 798.464c0-2.016-0.032-3.872-0.032-5.728-32.001-9.952-66.741-20.768-101.576-31.616 19.551 75.84 56.201 112.48 88.266 126.304 8.056-20.352 13.342-49.568 13.342-88.96zM412.767 924.576c5.7 0 11.399-1.952 16.876-5.728-42.127-19.904-87.247-70.080-106.32-170.24-27.862-8.672-55.087-17.152-80.273-24.992 22.321 76.416 75.338 200.96 169.717 200.96zM435.407 478.016c0 0-34.007 18.24-75.688 18.24-61.136 0-64.225-38.56-64.225-48.256 0-53.024 137.493-73.344 137.493-197.504 0-97.664-61.646-160.576-144.785-160.576-99.761 0-150.772 62.4-150.772 62.4l26.715 88.672c0 0 52.444-45.248 96.704-45.248 28.881 0 40.662 22.88 40.662 39.584 0 69.152-112.816 72.256-112.816 185.888 0 95.616 68.301 188.16 206.176 188.16 53.112 0 79.382-15.296 79.382-15.296l-38.847-116.064zM499.6 803.456c0 3.488 0.032 6.912 0.032 10.656 0 32.64-4.522 58.944-11.75 79.776 29.072-3.648 48.432-36.896 60.882-75.136-14.584-4.544-31.173-9.696-49.164-15.296z" />
<glyph unicode="&#xe976;" glyph-name="sketch" d="M1006.363 688.679l-154.218 116.833c-3.458 3.632-7.361 6.608-11.65 8.81l-103.888 78.713c-7.728 5.835-17.138 9.003-26.817 9.003h-395.573c-9.68 0-19.108-3.169-26.817-9.003l-269.776-204.356c-19.611-14.858-23.436-42.834-8.54-62.425l467.543-614.748c17.794-23.397 52.939-23.397 70.733 0l467.562 614.748c14.896 19.591 11.051 47.568-8.559 62.425v0zM329.132 813.046h365.742l50.369-38.158-65.188-48.263-318.367 2.512-80.394 47.684 47.838 36.226zM372.835 640.068l298.795-2.376 83.91-116.871h-463.157l80.452 119.248zM204.725 718.819l81.398-48.283-93.532-138.665-85.784 112.775 97.918 74.172zM512.003 111.896l-243.326 319.932h486.651l-243.326-319.932zM844.61 549.221l-88.392 123.112 62.908 46.602 98.053-74.288-72.569-95.425z" />
<glyph unicode="&#xe978;" glyph-name="skype" d="M994.559 339.297c7.405 33.356 11.259 67.899 11.259 103.391 0 265.897-218.611 481.523-488.399 481.523-28.418 0-56.294-2.433-83.507-7.063-43.65 27.124-95.308 42.852-150.638 42.852-156.478 0-283.274-124.995-283.274-279.311 0-51.518 14.209-99.711 38.894-141.258-6.442-31.219-9.874-63.625-9.874-96.744 0-266.016 218.672-481.582 488.399-481.582 30.585 0 60.448 2.79 89.468 8.072 39.917-21.129 85.434-33.178 133.9-33.178 156.418 0 283.214 125.055 283.214 279.251 0 44.573-10.596 86.654-29.441 124.046zM767.94 212.521c-22.578-31.575-55.932-56.503-99.281-74.19-42.807-17.568-94.103-26.53-152.564-26.53-70.141 0-128.963 12.167-174.901 36.205-32.813 17.449-59.846 41.072-80.376 70.391-20.771 29.439-31.247 58.699-31.247 87.010 0 17.568 6.864 32.881 20.35 45.404 13.366 12.464 30.525 18.696 50.995 18.696 16.738 0 31.247-4.926 42.988-14.719 11.259-9.437 20.892-23.385 28.659-41.25 8.67-19.586 18.062-36.086 27.996-48.965 9.633-12.583 23.421-23.088 41.001-31.338 17.701-8.191 41.603-12.464 70.924-12.464 40.399 0 73.513 8.547 98.378 25.284 24.384 16.322 36.184 36.027 36.184 60.124 0 18.933-6.201 33.89-18.845 45.642-13.366 12.226-30.886 21.723-52.139 28.37-22.216 6.766-52.32 14.185-89.588 21.901-50.754 10.683-93.802 23.325-128 37.748-35.040 14.66-63.278 35.018-83.929 60.48-20.952 25.937-31.609 58.402-31.609 96.566 0 36.323 11.138 69.145 33.174 97.397 21.795 28.073 53.705 50.034 94.826 64.931 40.519 14.779 88.685 22.257 143.293 22.257 43.59 0 81.942-4.986 113.972-14.838 32.211-9.852 59.304-23.147 80.617-39.588 21.494-16.619 37.509-34.246 47.503-52.645 10.115-18.577 15.293-37.036 15.293-54.901 0-17.212-6.743-32.881-20.049-46.473-13.366-13.77-30.284-20.714-50.152-20.714-18.062 0-32.271 4.392-42.024 12.939-9.151 8.013-18.664 20.476-29.2 38.282-12.162 22.791-26.913 40.775-43.831 53.476-16.437 12.345-43.831 18.518-81.58 18.518-34.92 0-63.458-6.885-84.591-20.595-20.35-13.117-30.284-28.252-30.284-46.176 0-10.921 3.191-20.12 9.814-27.955 6.864-8.428 16.677-15.669 29.080-21.842 12.824-6.351 26.070-11.455 39.315-15.016 13.547-3.739 36.305-9.259 67.552-16.381 39.556-8.309 75.861-17.746 107.951-27.895 32.572-10.209 60.628-22.791 83.627-37.57 23.36-15.016 41.844-34.246 55.029-57.275 13.185-23.207 19.868-51.696 19.868-84.873 0-39.647-11.56-75.793-34.198-107.427z" />
<glyph unicode="&#xe97a;" glyph-name="slack" d="M981.134 588.75c-105.536 351.873-258.016 433.953-609.889 328.385-351.841-105.536-433.953-258.016-328.385-609.889 105.568-351.841 258.048-433.953 609.889-328.385 351.873 105.568 433.953 258.048 328.385 609.889zM803.182 360.333l-66.336-22.208 22.976-68.672c9.312-27.776-5.664-57.856-33.472-67.168-6.048-2.048-12.192-2.912-18.208-2.752-21.696 0.576-41.696 14.464-48.96 36.224l-23.008 68.64-136.8-45.824 22.976-68.64c9.312-27.808-5.664-57.888-33.472-67.2-6.048-2.016-12.192-2.88-18.208-2.72-21.696 0.544-41.696 14.464-48.96 36.192l-23.008 68.672-66.336-22.24c-6.048-2.016-12.224-2.88-18.24-2.72-21.664 0.544-41.664 14.464-48.96 36.224-9.312 27.776 5.664 57.856 33.472 67.168l66.368 22.24-44.128 131.68-66.336-22.24c-6.048-2.016-12.192-2.88-18.24-2.72-21.664 0.544-41.664 14.464-48.96 36.224-9.312 27.776 5.696 57.856 33.472 67.168l66.368 22.24-23.008 68.64c-9.312 27.808 5.664 57.888 33.472 67.168 27.808 9.312 57.888-5.664 67.2-33.472l22.976-68.64 136.832 45.824-23.008 68.64c-9.312 27.808 5.696 57.888 33.472 67.2 27.808 9.312 57.888-5.696 67.2-33.472l22.976-68.672 66.368 22.24c27.808 9.312 57.856-5.696 67.168-33.472 9.312-27.808-5.664-57.888-33.472-67.2l-66.336-22.208 44.096-131.712 66.368 22.24c27.776 9.28 57.856-5.696 67.168-33.472 9.312-27.808-5.664-57.888-33.472-67.2zM421.54 490.935l44.096-131.68 136.832 45.824-44.096 131.68-136.832-45.824z" />
<glyph unicode="&#xe97c;" glyph-name="snapchat" d="M521.846 928h-0.045c-0.884 0-1.714 0-2.505-0.011-6.305-0.064-16.671-0.164-17.602-0.175-22.732 0-68.215-3.202-117.070-24.703-27.933-12.286-53.059-28.897-74.676-49.375-25.773-24.399-46.77-54.482-62.395-89.425-22.883-51.164-17.451-137.342-13.088-206.597l0.016-0.109c0.467-7.417 0.958-15.162 1.406-22.708-3.357-1.537-8.8-3.159-16.822-3.159-12.908 0-28.257 4.115-45.61 12.222-5.106 2.371-10.933 3.569-17.363 3.569-10.331 0-21.222-3.032-30.669-8.57-11.886-6.959-19.566-16.794-21.652-27.699-1.375-7.213-1.308-21.47 14.574-35.928 8.736-7.959 21.57-15.299 38.134-21.827 4.347-1.707 9.506-3.337 14.97-5.065 18.961-6.009 47.659-15.088 55.142-32.649 3.792-8.904 2.16-20.621-4.838-34.782-0.183-0.386-0.366-0.765-0.533-1.162-1.749-4.072-18.064-40.921-51.53-79.783-19.017-22.1-39.963-40.569-62.222-54.911-27.169-17.509-56.567-28.956-87.369-34.015-12.096-1.979-20.734-12.725-20.060-24.936 0.207-3.519 1.035-7.028 2.471-10.423 0.011-0.021 0.024-0.042 0.034-0.061 4.891-11.407 16.23-21.097 34.666-29.644 22.528-10.433 56.22-19.21 100.131-26.077 2.219-4.207 4.522-14.781 6.117-22.020 1.669-7.695 3.41-15.606 5.891-24.010 2.678-9.105 9.622-19.985 27.464-19.985 6.762 0 14.537 1.519 23.541 3.26 13.186 2.58 31.219 6.099 53.725 6.099 12.478 0 25.41-1.095 38.426-3.252 25.091-4.165 46.722-19.401 71.749-37.045 36.632-25.82 78.097-55.045 141.45-55.045 1.728 0 3.46 0.056 5.172 0.175 2.094-0.098 4.689-0.175 7.428-0.175 63.371 0 104.826 29.236 141.418 55.035l0.058 0.053c25.033 17.623 46.64 32.837 71.723 37.002 13.011 2.154 25.94 3.252 38.424 3.252 21.501 0 38.524-2.733 53.725-5.689 9.92-1.947 17.629-2.884 23.544-2.884l0.579-0.011h0.6c13.048 0 22.636 7.142 26.296 19.639 2.431 8.227 4.166 15.953 5.878 23.777 1.491 6.784 3.874 17.66 6.093 21.912 43.941 6.88 77.619 15.638 100.15 26.069 18.393 8.507 29.719 18.186 34.639 29.546 1.475 3.405 2.338 6.935 2.532 10.529 0.693 12.19-7.959 22.957-20.062 24.936-136.894 22.497-198.564 162.747-201.114 168.706-0.165 0.392-0.35 0.781-0.544 1.159-6.998 14.167-8.614 25.87-4.819 34.79 7.468 17.546 36.147 26.624 55.121 32.631 5.493 1.725 10.671 3.366 14.983 5.065 18.68 7.356 32.031 15.336 40.839 24.399 10.519 10.804 12.568 21.155 12.441 27.929-0.321 16.39-12.887 30.953-32.875 38.084-6.751 2.784-14.45 4.252-22.289 4.252-5.337 0-13.24-0.73-20.72-4.212-16.015-7.472-30.362-11.558-42.678-12.14-6.549 0.331-11.143 1.746-14.118 3.098 0.374 6.393 0.788 12.96 1.215 19.808l0.178 2.932c4.387 69.3 9.837 155.545-13.056 206.745-15.692 35.068-36.762 65.227-62.639 89.679-21.702 20.491-46.913 37.1-74.947 49.378-48.786 21.343-94.266 24.531-117.030 24.531z" />
<glyph unicode="&#xe97e;" glyph-name="soundcloud" d="M0 263.411c0-12.887 4.607-22.63 13.819-29.235s19.060-8.939 29.543-7.007c9.847 1.933 16.757 5.477 20.729 10.631 3.97 5.154 5.956 13.692 5.956 25.611v140.134c0 9.987-3.415 18.444-10.245 25.369s-15.168 10.389-25.016 10.389c-9.53 0-17.71-3.463-24.54-10.389s-10.246-15.382-10.246-25.369v-140.134zM109.595 203.492c0-9.344 3.256-16.349 9.768-21.021s14.852-7.007 25.016-7.007c10.483 0 18.98 2.336 25.493 7.007s9.768 11.677 9.768 21.021v326.657c0 9.664-3.416 17.96-10.245 24.886s-15.169 10.389-25.016 10.389c-9.53 0-17.711-3.464-24.54-10.389-6.83-6.926-10.245-15.221-10.245-24.886v-326.657zM218.714 188.029c0-9.343 3.336-16.349 10.007-21.021s15.248-7.007 25.732-7.007c10.165 0 18.503 2.336 25.015 7.007s9.769 11.678 9.769 21.021v298.147c0 9.986-3.416 18.524-10.245 25.611s-15.010 10.63-24.54 10.63c-9.848 0-18.266-3.543-25.255-10.63s-10.483-15.624-10.483-25.611v-298.147h-0.001zM328.309 186.579c0-17.719 11.753-26.578 35.261-26.578s35.26 8.859 35.26 26.578v483.22c0 27.060-8.101 42.362-24.302 45.906-10.483 2.577-20.808-0.483-30.973-9.181s-15.248-20.939-15.248-36.725v-483.22h0.001zM439.811 172.566v525.743c0 16.751 4.923 26.737 14.772 29.96 21.283 5.154 42.409 7.732 63.375 7.732 48.602 0 93.871-11.597 135.802-34.792s75.844-54.845 101.733-94.953c25.89-40.108 40.9-84.322 45.029-132.645 19.377 8.376 40.025 12.564 61.944 12.564 44.474 0 82.515-15.946 114.122-47.839s47.413-70.228 47.413-115.007c0-45.101-15.805-83.597-47.413-115.49s-69.489-47.839-113.645-47.839l-414.556 0.483c-2.86 0.966-5.004 2.739-6.434 5.315s-2.141 4.834-2.141 6.767v0 0z" />
<glyph unicode="&#xe97f;" glyph-name="Soundcloud-color" d="M0 263.411c0-12.887 4.607-22.63 13.819-29.235s19.060-8.939 29.543-7.007c9.847 1.933 16.757 5.477 20.729 10.631 3.97 5.154 5.956 13.692 5.956 25.611v140.134c0 9.987-3.415 18.444-10.245 25.369s-15.168 10.389-25.016 10.389c-9.53 0-17.71-3.463-24.54-10.389s-10.246-15.382-10.246-25.369v-140.134zM109.595 203.492c0-9.344 3.256-16.349 9.768-21.021s14.852-7.007 25.016-7.007c10.483 0 18.98 2.336 25.493 7.007s9.768 11.677 9.768 21.021v326.657c0 9.664-3.416 17.96-10.245 24.886s-15.169 10.389-25.016 10.389c-9.53 0-17.711-3.464-24.54-10.389-6.83-6.926-10.245-15.221-10.245-24.886v-326.657zM218.714 188.029c0-9.343 3.336-16.349 10.007-21.021s15.248-7.007 25.732-7.007c10.165 0 18.503 2.336 25.015 7.007s9.769 11.678 9.769 21.021v298.147c0 9.986-3.416 18.524-10.245 25.611s-15.010 10.63-24.54 10.63c-9.848 0-18.266-3.543-25.255-10.63s-10.483-15.624-10.483-25.611v-298.147h-0.001zM328.309 186.579c0-17.719 11.753-26.578 35.261-26.578s35.26 8.859 35.26 26.578v483.22c0 27.060-8.101 42.362-24.302 45.906-10.483 2.577-20.808-0.483-30.973-9.181s-15.248-20.939-15.248-36.725v-483.22h0.001zM439.811 172.566v525.743c0 16.751 4.923 26.737 14.772 29.96 21.283 5.154 42.409 7.732 63.375 7.732 48.602 0 93.871-11.597 135.802-34.792s75.844-54.845 101.733-94.953c25.89-40.108 40.9-84.322 45.029-132.645 19.377 8.376 40.025 12.564 61.944 12.564 44.474 0 82.515-15.946 114.122-47.839s47.413-70.228 47.413-115.007c0-45.101-15.805-83.597-47.413-115.49s-69.489-47.839-113.645-47.839l-414.556 0.483c-2.86 0.966-5.004 2.739-6.434 5.315s-2.141 4.834-2.141 6.767v0 0z" />
<glyph unicode="&#xe980;" glyph-name="spotify" d="M814.080 504.32c-163.84 97.28-437.76 107.52-593.92 58.88-25.6-7.68-51.2 7.68-58.88 30.72-7.68 25.6 7.68 51.2 30.72 58.88 181.76 53.76 481.28 43.52 670.72-69.12 23.040-12.8 30.72-43.52 17.92-66.56-12.8-17.92-43.52-25.6-66.56-12.8zM808.96 360.96c-12.8-17.92-35.84-25.6-53.76-12.8-138.24 84.48-348.16 110.080-509.44 58.88-20.48-5.12-43.52 5.12-48.64 25.6s5.12 43.52 25.6 48.64c186.88 56.32 417.28 28.16 576-69.12 15.36-7.68 23.040-33.28 10.24-51.2zM747.52 220.16c-10.24-15.36-28.16-20.48-43.52-10.24-120.32 74.24-271.36 89.6-450.56 48.64-17.92-5.12-33.28 7.68-38.4 23.040-5.12 17.92 7.68 33.28 23.040 38.4 194.56 43.52 363.52 25.6 496.64-56.32 17.92-7.68 20.48-28.16 12.8-43.52zM512 960c-281.6 0-512-230.4-512-512s230.4-512 512-512c281.6 0 512 230.4 512 512s-227.84 512-512 512z" />
<glyph unicode="&#xe982;" glyph-name="stackoverflow" horiz-adv-x="811" d="M535.168 72.698l-407.71-0.189-0.035 86.342 407.693 0.209 0.053-86.362zM810.667 561.689l-69.745 398.311-85.802-14.763 69.735-398.311 85.812 14.763zM544.972 269.766l-405.97 37.092-7.993-85.996 405.978-37.057 7.986 85.961zM571.755 382.439l-393.707 104.944-22.621-83.376 393.735-104.956 22.593 83.388zM623.154 481.202l-351.166 205.38-44.259-74.348 351.183-205.392 44.241 74.361zM709.262 541.677l-229.705 334.020-71.949-48.643 229.715-334.005 71.939 48.628zM604.407 356.727v-352.98h-534.757v352.98h-69.65v-420.727h673.706v420.727z" />
<glyph unicode="&#xe983;" horiz-adv-x="811" d="M535.168 72.698l-407.71-0.189-0.035 86.342 407.693 0.209 0.053-86.362zM810.667 561.689l-69.745 398.311-85.802-14.763 69.735-398.311 85.812 14.763zM544.972 269.766l-405.97 37.092-7.993-85.996 405.978-37.057 7.986 85.961zM571.755 382.439l-393.707 104.944-22.621-83.376 393.735-104.956 22.593 83.388zM623.154 481.202l-351.166 205.38-44.259-74.348 351.183-205.392 44.241 74.361zM709.262 541.677l-229.705 334.020-71.949-48.643 229.715-334.005 71.939 48.628z" />
<glyph unicode="&#xe984;" horiz-adv-x="811" d="M604.407 356.727v-352.98h-534.757v352.98h-69.65v-420.727h673.706v420.727z" />
<glyph unicode="&#xe985;" glyph-name="tinder" horiz-adv-x="768" d="M410.87 960c8.942-6.901 16.701-15.396 25.249-22.828 77.194-73.527 147.944-154.752 204.886-245.4 55.101-87.728 97.447-184.747 116.251-287.207 10.388-56.141 13.808-113.74 7.758-170.546-2.76-23.757-6.837-47.514-14.333-70.209-10.52-32.915-24.329-64.9-43.265-93.833-16.307-24.951-36.69-47.248-60.23-65.298-25.907-19.775-55.495-34.242-86.268-44.196-38.27-12.343-78.379-18.448-118.355-21.766-47.738-3.582-95.738-4.246-143.341 1.858-53.917 6.769-107.44 21.235-155.44 47.381-44.449 24.155-83.506 59.59-108.624 104.185-29.063 50.965-38.663 111.352-34.060 169.617 4.734 61.715 24.197 121.572 49.972 177.447 22.356 48.045 49.709 93.568 80.086 136.835 25.907 36.631 53.786 71.802 84.297 104.716 0.525 0.398 1.578 1.327 2.236 1.725-0.526-27.739 2.104-55.61 9.994-82.287 8.022-27.208 21.567-52.823 39.583-74.722 1.053-1.327 1.841-3.185 3.814-3.452 39.057 29.597 76.010 62.777 104.81 102.726 29.852 41.277 49.839 89.588 57.468 140.154 10.125 65.431 1.447 133.517-22.488 195.099v0z" />
<glyph unicode="&#xe987;" glyph-name="trello" d="M128 768v0c0 35.36 28.64 64 64 64h192c35.36 0 64-28.64 64-64v-576c0-35.36-28.64-64-64-64h-192c-35.36 0-64 28.64-64 64v576zM576 768v0c0 35.36 28.64 64 64 64h192c35.36 0 64-28.64 64-64v-320c0-35.36-28.64-64-64-64h-192c-35.36 0-64 28.64-64 64v320zM128 960c-70.688 0-128-57.344-128-128v-768c0-70.688 57.344-128 128-128h768c70.688 0 128 57.344 128 128v768c0 70.688-57.344 128-128 128h-768z" />
<glyph unicode="&#xe989;" glyph-name="tumblr" horiz-adv-x="576" d="M527.801 142.064c-18.636-9.081-54.275-16.983-80.851-17.662-80.236-2.193-95.809 57.586-96.455 100.921v318.777h201.265v155.050h-200.568v260.851h-146.77c-2.417 0-6.635-2.161-7.231-7.645-8.587-79.834-45.143-219.953-197.191-275.98v-132.269h101.433v-334.566c0-114.562 82.703-277.314 301.027-273.473 73.664 1.289 155.475 32.792 173.54 59.991l-48.199 146.007z" />
<glyph unicode="&#xe98b;" glyph-name="twitter" d="M1024 773.647c-37.625-17.134-78.136-28.722-120.63-33.899 43.395 26.626 76.693 68.846 92.381 119.14-40.631-24.654-85.529-42.59-133.492-52.205-38.226 41.85-92.861 67.983-153.327 67.983-115.942 0-210.005-96.458-210.005-215.414 0-16.888 1.803-33.283 5.409-49.061-174.604 8.999-329.373 94.671-433.053 225.152-18.091-31.927-28.429-68.969-28.429-108.416 0-74.701 37.084-140.651 93.462-179.296-34.38 1.048-66.836 10.848-95.205 26.873v-2.65c0-104.409 72.426-191.499 168.593-211.222-17.611-5.054-36.183-7.581-55.356-7.581-13.524 0-26.746 1.294-39.549 3.821 26.746-85.549 104.281-147.862 196.241-149.526-71.885-57.813-162.523-92.267-260.914-92.267-16.949 0-33.719 0.986-50.127 2.958 92.982-61.018 203.454-96.705 322.040-96.705 386.472 0 597.739 328.205 597.739 612.896 0 9.368-0.18 18.737-0.541 27.921 41.051 30.386 76.693 68.291 104.762 111.497z" />
<glyph unicode="&#xe98d;" glyph-name="viadeo" d="M474.793 959.792c84.129-142.060 129.811-269.373 140.146-299.696v1.246c-20.671 218.905-140.146 298.45-140.146 298.45v0zM614.939 660.096c1.86-28.038 32.659-527.532-230.476-627.638 0 0 24.185-4.569 51.47-3.323 0 0 334.863 212.259 181.281 624.107 0 0-0.62 2.492-2.274 6.854v0zM895.232 936.739c-42.788-91.383-121.956-108.206-121.956-108.206-79.168-20.146-106.867-50.884-106.867-50.884-79.168-79.96-16.743-176.952-16.743-176.952 170.945 39.046 233.37 180.275 233.37 180.275-7.648-94.914-211.046-206.859-211.046-206.859 67.386-66.253 131.671-58.153 174.046-32.815 56.224 33.646 83.302 107.376 83.302 107.376 54.57 163.659-34.106 288.065-34.106 288.065v0zM701.342 306.401c0-50.469-11.989-97.406-35.967-141.021s-56.224-77.261-97.151-100.937c-40.721-23.677-85.576-35.515-134.152-35.515-48.782 0-93.431 11.838-134.152 35.515s-73.174 57.322-97.151 100.937c-23.978 43.615-35.967 90.553-35.967 141.021 0 78.091 26.252 144.76 78.755 200.005 52.503 55.038 115.342 82.66 188.515 82.66 34.726 0 67.179-6.438 97.358-18.9 3.101 31.984 14.263 61.684 26.458 85.983-38.034 13.915-79.168 20.769-123.61 20.769-105.626 0-193.063-39.046-262.309-117.345-62.838-70.822-94.464-154.729-94.464-251.097 0-97.406 33.28-182.559 99.632-255.251 66.559-72.899 152.135-109.245 256.935-109.245 104.386 0 189.962 36.346 256.315 109.245 66.559 72.899 99.632 158.052 99.632 255.251 0 52.13-9.095 100.522-27.285 144.967-30.592-18.9-59.531-28.661-83.509-33.853 14.883-34.476 22.117-72.276 22.117-113.191v0z" />
<glyph unicode="&#xe98e;" d="M474.793 959.792c84.129-142.060 129.811-269.373 140.146-299.696v1.246c-20.671 218.905-140.146 298.45-140.146 298.45v0zM614.939 660.096c1.86-28.038 32.659-527.532-230.476-627.638 0 0 24.185-4.569 51.47-3.323 0 0 334.863 212.259 181.281 624.107 0 0-0.62 2.492-2.274 6.854v0zM895.232 936.739c-42.788-91.383-121.956-108.206-121.956-108.206-79.168-20.146-106.867-50.884-106.867-50.884-79.168-79.96-16.743-176.952-16.743-176.952 170.945 39.046 233.37 180.275 233.37 180.275-7.648-94.914-211.046-206.859-211.046-206.859 67.386-66.253 131.671-58.153 174.046-32.815 56.224 33.646 83.302 107.376 83.302 107.376 54.57 163.659-34.106 288.065-34.106 288.065v0z" />
<glyph unicode="&#xe98f;" d="M701.342 306.401c0-50.469-11.989-97.406-35.967-141.021s-56.224-77.261-97.151-100.937c-40.721-23.677-85.576-35.515-134.152-35.515-48.782 0-93.431 11.838-134.152 35.515s-73.174 57.322-97.151 100.937c-23.978 43.615-35.967 90.553-35.967 141.021 0 78.091 26.252 144.76 78.755 200.005 52.503 55.038 115.342 82.66 188.515 82.66 34.726 0 67.179-6.438 97.358-18.9 3.101 31.984 14.263 61.684 26.458 85.983-38.034 13.915-79.168 20.769-123.61 20.769-105.626 0-193.063-39.046-262.309-117.345-62.838-70.822-94.464-154.729-94.464-251.097 0-97.406 33.28-182.559 99.632-255.251 66.559-72.899 152.135-109.245 256.935-109.245 104.386 0 189.962 36.346 256.315 109.245 66.559 72.899 99.632 158.052 99.632 255.251 0 52.13-9.095 100.522-27.285 144.967-30.592-18.9-59.531-28.661-83.509-33.853 14.883-34.476 22.117-72.276 22.117-113.191v0z" />
<glyph unicode="&#xe990;" glyph-name="viber" d="M512 960c-282.77 0-512-229.23-512-512s229.23-512 512-512c282.77 0 512 229.23 512 512s-229.23 512-512 512zM542.664 751.443c34.814-4.345 62.948-12.732 93.816-27.788 30.36-14.855 49.79-28.9 75.496-54.465 24.086-24.151 37.446-42.441 51.613-70.836 19.735-39.612 30.969-86.7 32.89-138.538 0.71-17.683 0.204-21.625-3.845-26.677-7.691-9.803-24.593-8.184-30.36 2.829-1.823 3.638-2.329 6.769-2.936 20.917-1.012 21.726-2.529 35.771-5.566 52.546-11.942 65.782-43.517 118.328-93.916 156.020-41.999 31.527-85.415 46.887-142.289 50.221-19.229 1.111-22.568 1.818-26.92 5.153-8.098 6.366-8.501 21.321-0.71 28.293 4.757 4.346 8.096 4.952 24.593 4.447 8.602-0.303 21.252-1.314 28.134-2.122v0zM311.316 740.529c3.543-1.212 9.008-4.041 12.145-6.062 19.227-12.733 72.764-81.142 90.273-115.297 10.018-19.502 13.357-33.952 10.222-44.663-3.24-11.52-8.602-17.583-32.588-36.884-9.614-7.78-18.622-15.763-20.038-17.885-3.644-5.255-6.58-15.562-6.58-22.837 0.103-16.875 11.032-47.493 25.403-71.038 11.131-18.29 31.068-41.732 50.803-59.72 23.175-21.221 43.618-35.67 66.692-47.089 29.652-14.752 47.768-18.491 61.026-12.328 3.339 1.516 6.88 3.537 7.995 4.446 1.010 0.91 8.804 10.409 17.305 20.917 16.394 20.615 20.138 23.949 31.372 27.789 14.27 4.85 28.843 3.537 43.517-3.94 11.133-5.76 35.421-20.816 51.107-31.729 20.644-14.45 64.769-50.424 70.741-57.599 10.524-12.934 12.347-29.505 5.261-47.796-7.489-19.299-36.635-55.475-56.977-70.936-18.418-13.945-31.473-19.299-48.677-20.108-14.168-0.707-20.038 0.505-38.153 7.983-142.088 58.508-255.535 145.813-345.607 265.76-47.058 62.65-82.884 127.625-107.376 195.025-14.268 39.308-14.976 56.385-3.238 76.494 5.061 8.488 26.617 29.506 42.303 41.228 26.111 19.402 38.153 26.577 47.768 28.597 6.578 1.415 18.013 0.304 25.301-2.324v0zM549.647 678.182c61.431-8.993 108.995-37.489 140.166-83.77 17.509-26.071 28.438-56.689 32.183-89.529 1.315-12.025 1.315-33.953-0.101-37.591-1.317-3.435-5.567-8.084-9.211-10.003-3.946-2.021-12.345-1.82-17.001 0.606-7.794 3.94-10.12 10.206-10.12 27.182 0 26.171-6.781 53.758-18.519 75.181-13.359 24.454-32.789 44.663-56.471 58.71-20.342 12.126-50.399 21.119-77.825 23.341-9.919 0.809-15.384 2.83-19.128 7.175-5.767 6.569-6.376 15.461-1.518 22.837 5.263 8.185 13.359 9.499 37.546 5.861v0zM571.203 601.89c19.937-4.244 35.219-11.823 48.274-24.050 16.799-15.864 26.010-35.064 30.057-62.65 2.732-17.987 1.619-25.060-4.757-30.921-5.971-5.456-17.001-5.659-23.681-0.505-4.858 3.638-6.376 7.478-7.489 17.885-1.315 13.844-3.744 23.545-7.892 32.539-8.907 19.098-24.593 29.001-51.107 32.235-12.449 1.516-16.194 2.931-20.241 7.679-7.388 8.792-4.555 23.039 5.666 28.294 3.847 1.92 5.466 2.122 13.966 1.617 5.263-0.303 13.056-1.212 17.204-2.122v0z" />
<glyph unicode="&#xe992;" glyph-name="vimeo" d="M1023.485 683.108c-4.455-98.575-74.177-233.325-208.683-404.311-139.202-178.793-257.151-268.13-353.544-268.13-59.606 0-110.121 54.353-151.364 163.417-27.636 100.065-55.091 200.129-82.666 299.896-30.706 109.123-63.58 163.655-98.742 163.655-7.646 0-34.319-15.913-80.318-47.797l-48.167 61.445c50.455 43.804 100.187 87.787 149.257 131.651 67.193 57.571 117.708 87.787 151.424 90.946 79.475 7.629 128.485-46.188 146.969-161.271 19.688-124.261 33.536-201.5 41.183-231.775 23-102.985 48.167-154.358 75.742-154.358 21.374 0 53.525 33.256 96.394 99.826 42.868 66.69 65.688 117.348 68.818 152.272 6.141 57.571-16.798 86.178-68.818 86.178-24.505 0-49.792-5.125-75.742-15.853 50.575 162.046 146.909 240.834 289.242 236.245 105.425-2.92 155.218-70.385 149.016-202.036z" />
<glyph unicode="&#xe994;" glyph-name="vine" d="M957.217 450.941c-26.154-6.080-51.482-8.768-74.24-8.768-128.166 0-226.814 90.24-226.814 247.137 0 76.896 29.486 116.897 71.193 116.897 39.675 0 66.114-35.904 66.114-108.705 0-41.408-11.014-86.752-19.107-113.601 0 0 39.485-69.44 147.464-48.128 22.916 51.296 35.39 117.793 35.39 176.097 0 156.865-79.35 248.129-224.783 248.129-149.496 0-236.971-115.873-236.971-268.641 0-151.361 70.177-281.314 185.901-340.514-48.657-98.113-110.582-184.577-175.173-249.729-117.152 142.817-223.069 333.314-266.553 705.092h-172.856c79.858-619.171 317.876-816.324 380.785-854.181 35.612-21.536 66.273-20.512 98.807-2.048 51.101 29.312 204.533 183.937 289.564 365.090 35.676 0.096 78.557 4.224 121.279 13.984v121.889z" />
<glyph unicode="&#xe996;" glyph-name="whatsapp" d="M511.851 960v-0.008h0.297c282.257 0 511.851-229.659 511.851-511.996 0-282.328-229.595-511.996-511.851-511.996-104.118 0-200.712 30.998-281.654 84.575l-196.797-62.896 63.796 190.226c-61.384 84.286-97.494 188.128-97.494 300.099 0 282.336 229.595 511.996 511.851 511.996zM368.914 699.929c-9.928 23.777-17.452 24.678-32.492 25.289-5.121 0.297-10.828 0.595-17.155 0.595-19.567 0-40.025-5.717-52.365-18.357-15.040-15.35-52.356-51.165-52.356-124.612s53.562-144.481 60.781-154.42c7.524-9.922 104.424-162.83 254.877-225.149 117.655-48.761 152.568-44.241 179.345-38.524 39.116 8.427 88.169 37.335 100.509 72.241 12.34 34.923 12.34 64.723 8.722 71.043-3.609 6.32-13.546 9.922-28.586 17.457-15.040 7.526-88.169 43.647-102.012 48.463-13.546 5.114-26.48 3.305-36.705-11.145-14.446-20.167-28.586-40.64-40.025-52.974-9.028-9.633-23.779-10.839-36.11-5.717-16.552 6.915-62.887 23.183-120.067 74.050-44.237 39.425-74.326 88.483-83.048 103.23-8.73 15.044-0.9 23.786 6.013 31.907 7.524 9.336 14.743 15.953 22.267 24.686 7.524 8.724 11.737 13.244 16.552 23.48 5.121 9.931 1.503 20.167-2.106 27.693s-33.698 80.973-46.038 110.765z" />
<glyph unicode="&#xe998;" glyph-name="windowsphone" d="M0 815.020l418.478 56.817 0.183-402.409-418.271-2.375-0.39 347.967zM418.279 423.058l0.325-402.767-418.273 57.33-0.023 348.131 417.972-2.695zM469.007 879.268l554.863 80.732v-485.46l-554.863-4.391v409.119zM1024 419.273l-0.13-483.273-554.863 78.072-0.777 406.101 555.771-0.901z" />
<glyph unicode="&#xe99a;" glyph-name="wordpress" d="M0 448.016c0-202.662 117.764-377.804 288.553-460.782l-244.232 669.141c-28.385-63.65-44.321-134.116-44.321-208.359zM857.633 473.841c0 63.298-22.753 107.107-42.209 141.188-25.953 42.209-50.306 77.922-50.306 120.1 0 47.073 35.681 90.883 85.987 90.883 2.272 0 4.416-0.288 6.624-0.416-91.075 83.459-212.455 134.404-345.739 134.404-178.886 0-336.235-91.779-427.789-230.759 12.032-0.384 23.361-0.608 32.961-0.608 53.538 0 136.452 6.496 136.452 6.496 27.585 1.632 30.849-38.945 3.264-42.177 0 0-27.745-3.264-58.594-4.896l186.438-554.577 112.067 336.043-79.746 218.535c-27.585 1.632-53.73 4.896-53.73 4.896-27.585 1.632-24.353 43.809 3.264 42.177 0 0 84.547-6.496 134.852-6.496 53.538 0 136.452 6.496 136.452 6.496 27.617 1.632 30.849-38.945 3.264-42.177 0 0-27.777-3.264-58.594-4.896l185.030-550.353 51.106 170.629c22.081 70.85 38.945 121.7 38.945 165.509zM961.278 693.646c2.208-16.321 3.456-33.793 3.456-52.642 0-51.938-9.728-110.339-38.945-183.398l-156.389-452.142c152.229 88.739 254.6 253.672 254.6 442.542 0 89.027-22.753 172.709-62.722 245.64zM520.983 403.227l-153.637-446.382c45.889-13.504 94.403-20.865 144.645-20.865 59.618 0 116.804 10.304 170.021 29.025-1.344 2.208-2.624 4.512-3.648 7.040l-157.381 431.181z" />
<glyph unicode="&#xe99c;" glyph-name="yelp" horiz-adv-x="768" d="M19.562 467.018c-16.366-26.656-23.261-110.591-17.623-166.302 1.997-18.4 5.284-33.728 10.020-42.88 6.54-12.64 17.559-20.192 30.123-20.608 8.054-0.448 13.048 0.96 164.341 50.399 0 0 67.238 21.76 67.528 21.92 16.753 4.288 28.029 19.968 29.157 40 1.063 20.48-9.375 38.624-26.547 45.152 0 0-47.36 19.648-47.489 19.648-162.569 68.127-169.851 70.815-178.066 70.911-12.533 0.48-23.744-5.92-31.444-18.24zM383.258-40.615c2.642 7.712 2.932 13.056 3.383 174.558 0 0 0.387 71.327 0.419 72.095 1.063 17.44-10.020 33.344-28.319 40.544-18.783 7.328-38.983 2.784-50.324-11.616 0 0-33.152-40-33.281-40-113.953-135.903-118.625-142.174-121.428-150.238-1.675-4.8-2.384-9.792-1.772-14.816 0.677-7.168 3.834-14.336 9.182-20.928 26.386-31.936 153.065-79.295 193.498-72.287 14.079 2.624 24.26 10.656 28.641 22.688zM640.141 15.583c38.178 15.456 121.524 123.135 127.388 164.574 1.997 14.4-2.416 26.848-12.21 34.752-6.379 4.896-11.341 6.816-162.505 57.215 0 0-66.304 22.272-67.173 22.688-16.012 6.304-34.376 0.512-46.683-15.008-12.758-15.84-14.756-36.672-4.543-52.511l26.708-44.128c89.79-148.126 96.62-158.59 103.096-163.71 9.987-8 22.681-9.312 35.922-3.872zM562.078 396.846c171.816 42.272 178.453 44.544 185.251 49.055 10.374 7.072 15.593 19.008 14.723 33.536 0 0.48 0.064 0.928 0 1.472-4.414 42.816-78.385 154.366-114.791 172.446-12.887 6.304-25.838 5.856-36.47-1.408-6.637-4.416-11.566-11.040-103.547-138.847 0 0-41.593-57.567-42.076-58.111-10.986-13.504-11.083-32.96-0.419-49.599 11.083-17.216 29.833-25.6 47.005-20.768 0 0-0.709-1.216-0.902-1.472 8.473 3.296 23.648 7.040 51.226 13.696zM389.518 540.998c-2.932 69.151-23.39 377.244-25.806 391.548-3.544 12.896-13.435 22.144-27.771 25.824-43.816 11.072-211.443-36.704-242.533-69.279-9.955-10.56-13.692-23.616-10.696-35.104 4.865-10.24 212.635-342.268 212.635-342.268 30.735-50.591 55.768-42.752 63.952-40.16 8.151 2.592 33.055 10.432 30.22 69.439z" />
<glyph unicode="&#xe99e;" glyph-name="youtube" d="M406.272 314.242l-0.032 289.753 276.672-145.376-276.64-144.377zM1013.76 654.205c0 0-10.016 71.061-40.704 102.353-38.944 41.089-82.592 41.283-102.592 43.668-143.296 10.442-358.24 10.442-358.24 10.442h-0.448c0 0-214.944 0-358.24-10.442-20.032-2.385-63.648-2.578-102.624-43.668-30.688-31.292-40.672-102.353-40.672-102.353s-10.24-83.468-10.24-166.904v-78.247c0-83.468 10.24-166.904 10.24-166.904s9.984-71.061 40.672-102.353c38.976-41.089 90.144-39.8 112.928-44.087 81.92-7.928 348.16-10.377 348.16-10.377s215.168 0.322 358.464 10.764c20 2.417 63.648 2.61 102.592 43.7 30.688 31.292 40.704 102.353 40.704 102.353s10.24 83.436 10.24 166.904v78.247c0 83.436-10.24 166.904-10.24 166.904v0z" />
</font>
</defs>
</svg>
