<?xml version="1.0" encoding="utf-8"?>
<!-- Generator: Adobe Illustrator 16.0.0, SVG Export Plug-In . SVG Version: 6.00 Build 0)  -->
<!DOCTYPE svg PUBLIC "-//W3C//DTD SVG 1.1//EN" "http://www.w3.org/Graphics/SVG/1.1/DTD/svg11.dtd">
<svg version="1.1" id="Capa_1" xmlns="http://www.w3.org/2000/svg" xmlns:xlink="http://www.w3.org/1999/xlink" x="0px" y="0px"
	 width="800.6px" height="551.89px" viewBox="-294 -214.999 800.6 551.89" enable-background="new -294 -214.999 800.6 551.89"
	 xml:space="preserve">
<polygon display="none" opacity="0.2" fill="#291C19" enable-background="new    " points="106.184,366.945 -247.153,366.945 
	-70.484,60.946 106.184,-245.055 282.851,60.946 459.523,366.945 "/>
<g display="none">
	<g display="inline">
		<g>
			<path fill="#291C19" d="M-154.035,302.397c0-1.782-0.63-3.245-1.896-4.383c-1.263-1.138-3.506-2.156-6.722-3.062
				c-4.607-1.271-8.163-2.945-10.663-5.015c-2.5-2.068-3.75-4.771-3.75-8.104c0-3.449,1.373-6.296,4.119-8.53
				c2.744-2.235,6.273-3.354,10.59-3.354c4.627,0,8.328,1.242,11.104,3.725c2.774,2.479,4.113,5.545,4.017,9.192l-0.06,0.176h-6.885
				c0-2.255-0.751-4.049-2.251-5.384c-1.499-1.333-3.494-1.999-5.983-1.999c-2.414,0-4.271,0.566-5.577,1.704
				c-1.304,1.139-1.956,2.61-1.956,4.414c0,1.645,0.717,3.004,2.149,4.073c1.429,1.066,3.802,2.085,7.117,3.045
				c4.49,1.254,7.913,2.967,10.267,5.132c2.354,2.169,3.53,4.938,3.53,8.312c0,3.552-1.393,6.384-4.177,8.502
				c-2.788,2.121-6.441,3.179-10.975,3.179c-4.354,0-8.146-1.158-11.383-3.476c-3.235-2.312-4.806-5.576-4.708-9.793l0.061-0.176
				h6.883c0,2.567,0.888,4.505,2.661,5.809c1.774,1.306,3.938,1.957,6.485,1.957c2.53,0,4.496-0.534,5.896-1.604
				C-154.732,305.666-154.035,304.222-154.035,302.397z"/>
			<path fill="#291C19" d="M-99.882,295.839c0,5.236-1.645,9.574-4.929,13.019c-3.283,3.438-7.556,5.162-12.811,5.162
				c-5.119,0-9.286-1.724-12.505-5.162c-3.214-3.442-4.821-7.78-4.821-13.019v-7.708c0-5.217,1.604-9.551,4.809-13.003
				c3.208-3.451,7.377-5.179,12.519-5.179c5.233,0,9.501,1.728,12.795,5.179c3.296,3.452,4.943,7.786,4.943,13.003V295.839z
				 M-107.03,288.07c0-3.566-0.952-6.499-2.854-8.794c-1.902-2.294-4.481-3.439-7.736-3.439c-3.157,0-5.645,1.146-7.458,3.439
				c-1.813,2.295-2.721,5.228-2.721,8.794v7.77c0,3.604,0.911,6.563,2.735,8.869c1.822,2.304,4.306,3.455,7.441,3.455
				c3.271,0,5.858-1.146,7.75-3.439c1.895-2.294,2.84-5.258,2.84-8.885v-7.77H-107.03L-107.03,288.07z"/>
			<path fill="#291C19" d="M-79.122,307.692h20.063v5.709h-27.207v-42.832h7.146L-79.122,307.692L-79.122,307.692z"/>
			<path fill="#291C19" d="M-14.969,270.569v28.209c0,4.766-1.563,8.5-4.691,11.193c-3.127,2.696-7.163,4.047-12.104,4.047
				c-4.863,0-8.826-1.351-11.885-4.047c-3.061-2.693-4.589-6.43-4.589-11.193v-28.209h7.148v28.209c0,3.042,0.854,5.39,2.562,7.048
				c1.702,1.657,3.959,2.485,6.765,2.485c2.902,0,5.232-0.828,7.001-2.485c1.767-1.658,2.646-4.006,2.646-7.048v-28.209H-14.969
				L-14.969,270.569z"/>
			<path fill="#291C19" d="M30.708,299.396l0.061,0.176c0.078,4.313-1.324,7.805-4.208,10.461
				c-2.884,2.657-6.773,3.985-11.678,3.985c-4.982,0-9.023-1.683-12.12-5.047c-3.1-3.362-4.646-7.661-4.646-12.896v-8.149
				c0-5.216,1.529-9.517,4.589-12.899c3.06-3.381,7.048-5.074,11.973-5.074c5.039,0,9.005,1.285,11.899,3.856
				c2.891,2.566,4.298,6.087,4.22,10.56l-0.061,0.179h-6.91c0-2.863-0.777-5.059-2.324-6.575c-1.549-1.52-3.825-2.28-6.825-2.28
				c-2.902,0-5.203,1.153-6.897,3.457c-1.697,2.305-2.546,5.211-2.546,8.724v8.207c0,3.549,0.864,6.474,2.59,8.779
				c1.725,2.307,4.078,3.457,7.061,3.457c2.923,0,5.143-0.769,6.661-2.297c1.521-1.527,2.281-3.732,2.281-6.618h6.884v-0.004H30.708
				z"/>
			<path fill="#291C19" d="M51.414,313.401h-7.148v-42.832h7.148V313.401z"/>
			<path fill="#291C19" d="M100.68,295.839c0,5.236-1.643,9.574-4.928,13.019c-3.286,3.438-7.557,5.162-12.813,5.162
				c-5.118,0-9.283-1.724-12.501-5.162c-3.218-3.442-4.823-7.78-4.823-13.019v-7.708c0-5.217,1.603-9.551,4.809-13.003
				c3.207-3.451,7.379-5.179,12.517-5.179c5.235,0,9.5,1.728,12.797,5.179c3.295,3.452,4.941,7.786,4.941,13.003L100.68,295.839
				L100.68,295.839z M93.53,288.07c0-3.566-0.95-6.499-2.854-8.794c-1.901-2.294-4.48-3.439-7.736-3.439
				c-3.156,0-5.643,1.146-7.456,3.439c-1.814,2.295-2.723,5.228-2.723,8.794v7.77c0,3.604,0.913,6.563,2.737,8.869
				c1.822,2.304,4.302,3.455,7.439,3.455c3.274,0,5.858-1.146,7.752-3.439c1.893-2.294,2.837-5.258,2.837-8.885v-7.77H93.53
				L93.53,288.07z"/>
			<path fill="#291C19" d="M147.739,313.401h-7.147l-18.973-30.858l-0.179,0.06v30.801h-7.147V270.57h7.147l18.976,30.859
				l0.176-0.061v-30.801h7.147V313.401z"/>
			<path fill="#291C19" d="M186.683,294.135h-16.771v13.559h19.769v5.709h-26.918V270.57h26.709v5.735h-19.56v12.091h16.771V294.135
				z"/>
			<path fill="#291C19" d="M224.708,302.397c0-1.782-0.631-3.245-1.894-4.383c-1.267-1.138-3.51-2.156-6.726-3.062
				c-4.606-1.271-8.159-2.945-10.666-5.015c-2.496-2.067-3.748-4.771-3.748-8.104c0-3.449,1.373-6.296,4.119-8.53
				c2.746-2.235,6.274-3.354,10.593-3.354c4.627,0,8.325,1.242,11.104,3.725c2.772,2.479,4.108,5.545,4.012,9.192l-0.06,0.176
				h-6.885c0-2.255-0.748-4.049-2.248-5.384c-1.5-1.333-3.494-1.999-5.988-1.999c-2.409,0-4.271,0.566-5.573,1.704
				c-1.304,1.139-1.953,2.61-1.953,4.414c0,1.645,0.713,3.004,2.146,4.073c1.431,1.066,3.806,2.085,7.121,3.045
				c4.485,1.254,7.912,2.967,10.263,5.132c2.354,2.169,3.53,4.938,3.53,8.312c0,3.552-1.392,6.384-4.176,8.502
				c-2.785,2.121-6.443,3.179-10.974,3.179c-4.356,0-8.147-1.158-11.388-3.476c-3.233-2.312-4.803-5.576-4.705-9.793l0.06-0.176
				h6.886c0,2.567,0.89,4.505,2.659,5.809c1.777,1.306,3.939,1.957,6.488,1.957c2.528,0,4.494-0.534,5.896-1.604
				C224.009,305.666,224.708,304.222,224.708,302.397z"/>
			<path fill="#291C19" d="M276.884,294.867h-3.497v18.533h-7.148v-42.832h7.148v18.148h2.793l13.913-18.148h8.384l0.086,0.146
				l-16.062,20.121l17.388,22.563h-9.031L276.884,294.867z"/>
			<path fill="#291C19" d="M307.941,301.839c0-2.354,0.656-4.397,1.975-6.134c1.313-1.733,3.301-3.517,5.973-5.34
				c-1.434-1.842-2.494-3.509-3.182-4.999c-0.688-1.489-1.029-3.021-1.029-4.589c0-3.452,1.002-6.12,3.002-8.002
				c1.998-1.883,4.738-2.826,8.207-2.826c3.119,0,5.654,0.938,7.604,2.812c1.955,1.873,2.93,4.136,2.93,6.78
				c0,1.98-0.479,3.699-1.428,5.164c-0.957,1.459-2.34,2.876-4.162,4.251l-3.063,2.204l8.885,10.563
				c0.781-1.235,1.396-2.59,1.838-4.06c0.439-1.472,0.662-3.031,0.662-4.68h6.002c0,2.704-0.367,5.202-1.104,7.487
				c-0.732,2.284-1.84,4.312-3.311,6.074l5.646,6.704l-0.059,0.149h-8.06l-2.384-2.795c-1.605,1.117-3.33,1.967-5.162,2.545
				c-1.836,0.578-3.77,0.867-5.813,0.867c-4.256,0-7.646-1.129-10.18-3.386C309.21,308.382,307.941,305.447,307.941,301.839z
				 M322.12,308.312c1.217,0,2.424-0.176,3.619-0.53c1.193-0.353,2.334-0.872,3.412-1.558l-9.561-11.3l-0.766,0.561
				c-1.49,1.102-2.486,2.164-2.982,3.192c-0.502,1.028-0.754,2.007-0.754,2.926c0,1.961,0.617,3.57,1.854,4.824
				C318.18,307.683,319.906,308.312,322.12,308.312z M318.385,280.688c0,0.94,0.229,1.901,0.689,2.882
				c0.463,0.982,1.164,2.07,2.104,3.268l3.209-2.146c1.113-0.729,1.863-1.488,2.244-2.281c0.385-0.795,0.576-1.671,0.576-2.633
				c0-1.061-0.408-2.004-1.219-2.837c-0.818-0.836-1.891-1.252-3.227-1.252c-1.371,0-2.443,0.484-3.221,1.455
				C318.773,278.115,318.385,279.296,318.385,280.688z"/>
			<path fill="#291C19" d="M365.796,294.867h-3.5v18.533h-7.146v-42.832h7.146v18.148h2.795l13.916-18.148h8.383l0.089,0.146
				l-16.062,20.121l17.385,22.563h-9.029L365.796,294.867z"/>
		</g>
		<g>
			<path fill="#291C19" d="M96.27,180.618c-1.161-1.638-2.022-3.151-2.584-4.541c-0.563-1.391-0.843-2.8-0.843-4.228
				c0-3.599,1.048-6.369,3.142-8.311c2.096-1.94,4.969-2.912,8.624-2.912c3.027,0,5.487,0.972,7.382,2.912
				c1.896,1.939,2.842,4.303,2.842,7.081c0,2.038-0.349,3.794-1.043,5.271c-0.695,1.476-1.746,2.782-3.154,3.927l-2.855,1.998
				l6.713,7.739c0.646-1.087,1.155-2.266,1.526-3.541s0.558-2.606,0.558-3.998h7.426c0,2.799-0.324,5.354-0.972,7.667
				c-0.647,2.313-1.688,4.354-3.112,6.127l5.967,6.854l-0.055,0.145h-10.54l-2.113-2.398c-1.655,1.027-3.309,1.784-4.954,2.271
				c-1.646,0.485-3.458,0.729-5.438,0.729c-4.152,0-7.454-1.084-9.91-3.256c-2.455-2.171-3.685-5.008-3.685-8.51
				c0-2.208,0.537-4.089,1.613-5.642c1.075-1.551,2.729-3.229,4.955-5.039L96.27,180.618z M103.438,195.982
				c0.817,0,1.646-0.086,2.483-0.258c0.838-0.174,1.647-0.438,2.428-0.801l-7.338-8.338c-0.781,0.686-1.334,1.38-1.656,2.083
				c-0.325,0.705-0.484,1.478-0.484,2.313c0,1.468,0.441,2.665,1.326,3.599C101.081,195.515,102.161,195.982,103.438,195.982z
				 M101.181,171.736c0,0.705,0.16,1.424,0.485,2.156c0.322,0.732,0.81,1.52,1.456,2.355l1.286-0.801
				c1.065-0.686,1.784-1.352,2.155-1.998c0.372-0.647,0.558-1.361,0.558-2.143c0-0.876-0.243-1.638-0.729-2.286
				c-0.484-0.646-1.194-0.972-2.127-0.972c-0.934,0-1.681,0.358-2.242,1.072C101.461,169.837,101.181,170.708,101.181,171.736z"/>
			<path fill="#291C19" d="M185.491,112.815v54.182h-6.654l-31.274-54.182H107.91h-0.748H67.507l-31.274,54.182h-6.654v-54.182
				h-32.13V251.22h32.13v-55.517h8.936l31.847,55.517h33.095h8.163h33.094l31.847-55.517h8.937v55.517h32.131V112.815H185.491z
				 M107.534,244.702l-43.165-68.96l43.165-62.389l43.166,62.389L107.534,244.702z"/>
		</g>
	</g>
	<g display="inline">
		<g>
			<path fill="#291C19" d="M96.089-126.244c-1.128-1.591-1.966-3.063-2.511-4.413c-0.546-1.35-0.818-2.719-0.818-4.104
				c0-3.495,1.018-6.188,3.052-8.074c2.036-1.888,4.828-2.83,8.38-2.83c2.94,0,5.332,0.942,7.174,2.83
				c1.84,1.887,2.76,4.182,2.76,6.881c0,1.979-0.336,3.688-1.013,5.12c-0.676,1.434-1.698,2.705-3.065,3.813l-2.774,1.942
				l6.521,7.521c0.627-1.056,1.123-2.2,1.483-3.439c0.361-1.239,0.541-2.534,0.541-3.885h7.216c0,2.719-0.314,5.202-0.943,7.448
				c-0.629,2.248-1.639,4.231-3.024,5.953l5.8,6.658l-0.056,0.14H114.57l-2.055-2.331c-1.609,1-3.214,1.733-4.813,2.206
				c-1.601,0.473-3.36,0.707-5.284,0.707c-4.034,0-7.243-1.055-9.629-3.163c-2.386-2.107-3.58-4.864-3.58-8.269
				c0-2.146,0.521-3.973,1.567-5.48c1.045-1.507,2.649-3.139,4.814-4.896L96.089-126.244z M103.054-111.315
				c0.794,0,1.599-0.083,2.413-0.25c0.814-0.168,1.602-0.427,2.358-0.775l-7.131-8.104c-0.759,0.665-1.296,1.341-1.608,2.023
				c-0.315,0.687-0.473,1.436-0.473,2.248c0,1.425,0.431,2.589,1.29,3.495C100.764-111.77,101.813-111.315,103.054-111.315z
				 M100.861-134.874c0,0.686,0.156,1.383,0.473,2.096c0.313,0.712,0.786,1.477,1.415,2.289l1.25-0.777
				c1.036-0.665,1.733-1.313,2.094-1.94c0.361-0.629,0.542-1.322,0.542-2.081c0-0.852-0.235-1.591-0.708-2.221
				c-0.472-0.628-1.16-0.943-2.066-0.943s-1.633,0.349-2.178,1.041C101.134-136.719,100.861-135.873,100.861-134.874z"/>
			<path fill="#291C19" d="M182.782-192.128v52.647h-6.466l-30.389-52.647h-38.53h-0.727H68.142l-30.39,52.647h-6.466v-52.647H0.067
				v134.484h31.22v-53.94h8.682l30.944,53.94h32.155h7.931h32.158l30.94-53.94h8.685v53.94h31.221v-134.484H182.782z
				 M107.035-63.976l-41.942-67.006l41.942-60.622l41.942,60.622L107.035-63.976z"/>
		</g>
		<g>
			<path fill="#291C19" d="M-152.613,1.026c0-1.96-0.779-3.584-2.337-4.854c-1.558-1.283-4.202-2.484-7.931-3.603
				c-4.077-1.116-7.18-2.517-9.307-4.191c-2.127-1.667-3.191-3.936-3.191-6.813c0-2.922,1.19-5.314,3.573-7.203
				c2.379-1.878,5.414-2.815,9.109-2.815c3.887,0,7.01,1.058,9.375,3.184c2.36,2.124,3.509,4.834,3.438,8.104l-0.052,0.155h-2.938
				c0-2.521-0.917-4.605-2.745-6.275c-1.828-1.654-4.188-2.492-7.075-2.492c-2.975,0-5.307,0.701-6.997,2.111
				c-1.689,1.412-2.534,3.139-2.534,5.191c0,1.942,0.766,3.533,2.299,4.785c1.532,1.259,4.229,2.427,8.101,3.506
				c4.023,1.172,7.099,2.621,9.215,4.335c2.118,1.713,3.178,3.992,3.178,6.824c0,2.979-1.238,5.37-3.714,7.178
				c-2.479,1.815-5.6,2.717-9.362,2.717c-3.762,0-7.044-0.956-9.847-2.869c-2.8-1.915-4.156-4.716-4.067-8.39l0.052-0.154h2.916
				c0,2.959,1.107,5.152,3.334,6.601c2.224,1.448,4.761,2.167,7.613,2.167c2.924,0,5.302-0.675,7.143-2.011
				C-153.532,4.87-152.613,3.143-152.613,1.026z"/>
			<path fill="#291C19" d="M-102.922-5.672c0,4.938-1.354,8.924-4.057,11.977c-2.705,3.039-6.332,4.561-10.884,4.561
				c-4.483,0-8.056-1.521-10.727-4.561c-2.669-3.053-4.006-7.036-4.006-11.977v-6.224c0-4.92,1.331-8.912,3.992-11.975
				c2.662-3.06,6.231-4.589,10.713-4.589c4.552,0,8.185,1.529,10.896,4.589c2.713,3.063,4.069,7.055,4.069,11.975L-102.922-5.672
				L-102.922-5.672z M-106.046-11.949c0-4.132-1.047-7.457-3.14-9.979c-2.09-2.519-4.993-3.771-8.703-3.771
				c-3.64,0-6.476,1.255-8.505,3.771c-2.032,2.521-3.047,5.848-3.047,9.979v6.277c0,4.17,1.02,7.514,3.06,10.033
				c2.041,2.521,4.878,3.771,8.521,3.771c3.729,0,6.629-1.247,8.703-3.759c2.075-2.521,3.112-5.858,3.112-10.047L-106.046-11.949
				L-106.046-11.949z"/>
			<path fill="#291C19" d="M-80.879,7.668h19.746v2.647h-22.895V-27.91h3.147L-80.879,7.668L-80.879,7.668z"/>
			<path fill="#291C19" d="M-18.218-27.909v25.391c0,4.195-1.285,7.484-3.86,9.841c-2.57,2.361-5.881,3.543-9.923,3.543
				c-3.992,0-7.25-1.188-9.778-3.549c-2.529-2.373-3.795-5.655-3.795-9.835v-25.391h3.149v25.391c0,3.29,0.977,5.904,2.929,7.839
				c1.952,1.934,4.449,2.897,7.495,2.897c3.116,0,5.671-0.961,7.663-2.885c1.999-1.926,2.996-4.545,2.996-7.854v-25.39
				L-18.218-27.909L-18.218-27.909z"/>
			<path fill="#291C19" d="M28.086-1.633l0.055,0.16c0.067,3.744-1.155,6.74-3.679,8.98c-2.521,2.237-5.828,3.354-9.923,3.354
				c-4.251,0-7.685-1.533-10.294-4.601c-2.606-3.069-3.91-7.052-3.91-11.935v-6.224c0-4.862,1.304-8.847,3.911-11.933
				c2.609-3.087,6.042-4.631,10.294-4.631c4.147,0,7.47,1.088,9.962,3.278c2.496,2.189,3.707,5.192,3.64,9.031l-0.055,0.156h-2.938
				c0-3.077-0.941-5.482-2.822-7.204c-1.88-1.721-4.479-2.591-7.784-2.591c-3.348,0-6.024,1.291-8.047,3.885
				c-2.023,2.594-3.032,5.91-3.032,9.95v6.277c0,4.096,1.009,7.437,3.032,10.021c2.021,2.579,4.7,3.869,8.047,3.869
				c3.307,0,5.904-0.843,7.784-2.52c1.881-1.688,2.822-4.124,2.822-7.332h2.938L28.086-1.633L28.086-1.633z"/>
			<path fill="#291C19" d="M50.942,10.316h-3.146V-27.91h3.146V10.316z"/>
			<path fill="#291C19" d="M100.322-5.672c0,4.938-1.35,8.924-4.06,11.977c-2.702,3.039-6.332,4.561-10.88,4.561
				c-4.479,0-8.061-1.521-10.725-4.561c-2.671-3.053-4.005-7.036-4.005-11.977v-6.224c0-4.92,1.328-8.912,3.99-11.975
				c2.655-3.06,6.229-4.589,10.711-4.589c4.548,0,8.182,1.529,10.895,4.589c2.717,3.063,4.072,7.055,4.072,11.975L100.322-5.672
				L100.322-5.672z M97.197-11.949c0-4.132-1.049-7.457-3.137-9.979c-2.096-2.519-4.995-3.771-8.705-3.771
				c-3.644,0-6.479,1.255-8.508,3.771c-2.03,2.521-3.048,5.848-3.048,9.979v6.277c0,4.17,1.021,7.514,3.062,10.033
				c2.038,2.521,4.88,3.771,8.521,3.771c3.729,0,6.628-1.247,8.704-3.759c2.069-2.521,3.109-5.858,3.109-10.047L97.197-11.949
				L97.197-11.949z"/>
			<path fill="#291C19" d="M147.382,10.316h-3.144l-21.715-32.709l-0.153,0.022v32.687h-3.152V-27.91h3.152l21.705,32.638
				l0.163-0.026v-32.609h3.144V10.316z"/>
			<path fill="#291C19" d="M188.198-8.19h-17.144V7.668h19.827v2.647h-22.979V-27.91h22.841v2.677h-19.688v14.368h17.143
				L188.198-8.19L188.198-8.19z"/>
			<path fill="#291C19" d="M229.856,1.026c0-1.96-0.78-3.584-2.338-4.854c-1.56-1.283-4.194-2.484-7.92-3.603
				c-4.08-1.116-7.187-2.517-9.315-4.191c-2.125-1.667-3.183-3.936-3.183-6.813c0-2.922,1.188-5.314,3.563-7.203
				c2.381-1.878,5.426-2.815,9.116-2.815c3.886,0,7.011,1.058,9.373,3.184c2.363,2.124,3.509,4.834,3.433,8.104l-0.049,0.155h-2.94
				c0-2.521-0.916-4.605-2.744-6.275c-1.824-1.654-4.185-2.492-7.069-2.492c-2.98,0-5.312,0.701-6.996,2.111
				c-1.695,1.412-2.535,3.139-2.535,5.191c0,1.942,0.769,3.533,2.297,4.785c1.529,1.259,4.229,2.427,8.093,3.506
				c4.03,1.172,7.104,2.621,9.219,4.335c2.117,1.713,3.183,3.992,3.183,6.824c0,2.979-1.244,5.37-3.715,7.178
				c-2.478,1.815-5.601,2.717-9.361,2.717c-3.766,0-7.045-0.956-9.85-2.869c-2.796-1.915-4.156-4.716-4.068-8.39l0.056-0.154h2.914
				c0,2.959,1.11,5.152,3.336,6.601c2.22,1.448,4.76,2.167,7.612,2.167c2.925,0,5.308-0.675,7.136-2.011
				C228.942,4.87,229.856,3.143,229.856,1.026z"/>
			<path fill="#291C19" d="M282.608-7.826h-4.118v18.144h-3.15v-38.227h3.15v17.438h4.092l15.021-17.438h3.571l0.058,0.129
				L285.366-9.402l17.438,19.59l-0.054,0.129h-3.783L282.608-7.826z"/>
			<path fill="#291C19" d="M324.503-10.558c-1.412-1.747-2.469-3.348-3.15-4.784c-0.682-1.448-1.021-2.93-1.021-4.459
				c0-2.765,0.779-4.901,2.336-6.402c1.559-1.5,3.691-2.253,6.402-2.253c2.521,0,4.521,0.705,6.006,2.125
				c1.479,1.42,2.215,3.194,2.215,5.35c0,1.576-0.393,2.933-1.182,4.077c-0.789,1.139-1.926,2.273-3.41,3.41l-4.176,3.204
				l10.814,12.627c0.855-1.247,1.523-2.636,1.998-4.178c0.471-1.539,0.709-3.179,0.709-4.931h2.883c0,2.233-0.313,4.305-0.959,6.182
				c-0.639,1.878-1.561,3.589-2.768,5.107l4.854,5.67L346,10.316h-3.592l-3.205-3.701c-1.482,1.361-3.115,2.42-4.881,3.15
				c-1.771,0.73-3.676,1.098-5.723,1.098c-3.66,0-6.559-0.931-8.691-2.8c-2.141-1.879-3.207-4.373-3.207-7.487
				c0-2.096,0.637-3.998,1.912-5.685c1.262-1.688,3.102-3.401,5.496-5.156L324.503-10.558z M328.602,8.218
				c1.605,0,3.18-0.316,4.715-0.94c1.529-0.635,2.906-1.53,4.133-2.702L326.581-8.092c-0.088-0.08-0.162-0.16-0.229-0.216
				c-0.059-0.063-0.104-0.133-0.141-0.198l-1.234,0.945c-2.027,1.64-3.393,3.136-4.086,4.464c-0.689,1.327-1.037,2.557-1.037,3.672
				c0,2.175,0.746,3.992,2.25,5.446C323.594,7.49,325.762,8.218,328.602,8.218z M323.484-19.846c0,1.154,0.273,2.354,0.826,3.593
				c0.553,1.246,1.395,2.563,2.533,3.966l4.646-3.464c1.016-0.785,1.732-1.609,2.168-2.473c0.424-0.853,0.643-1.777,0.643-2.76
				c0-1.383-0.459-2.53-1.383-3.436c-0.916-0.905-2.195-1.366-3.848-1.366c-1.783,0-3.162,0.568-4.132,1.702
				C323.964-22.944,323.484-21.534,323.484-19.846z"/>
			<path fill="#291C19" d="M370.309-7.826h-4.127v18.144h-3.146v-38.227h3.146v17.438h4.102l15.016-17.438h3.572l0.055,0.129
				L373.067-9.401l17.434,19.59l-0.051,0.129h-3.781L370.309-7.826z"/>
		</g>
	</g>
</g>
<g display="none">
	<g display="inline">
		<polyline fill="#291C19" points="80.799,-35.46 80.799,12.921 52.627,-35.46 26.85,-35.46 55.971,7.189 24.387,80.508 
			50.752,80.508 71.159,27.119 80.799,41.087 80.799,80.508 106.083,80.508 106.286,80.508 131.569,80.508 131.569,41.087 
			141.21,27.119 161.616,80.508 187.981,80.508 156.397,7.189 185.519,-35.46 159.741,-35.46 131.569,12.921 131.569,-35.46 		"/>
		<path fill="#FFFFFF" d="M114.979,20.148l5.38,0.965c-0.885,3.894-2.381,7.406-4.486,10.544c1.143,1.189,2.26,1.784,3.354,1.784
			c0.146,0,0.521-0.017,1.134-0.048v5.598c-0.899,0.225-1.736,0.338-2.509,0.338c-2.284,0-4.415-1.038-6.395-3.112
			c-2.688,2.188-5.67,3.281-8.95,3.281c-3.635,0-6.294-0.975-7.974-2.92c-1.682-1.945-2.521-4.213-2.521-6.805
			c0-4.229,2.492-7.396,7.479-9.505c-2.044-2.799-3.063-5.26-3.063-7.384c0-1.978,0.809-3.693,2.425-5.149
			c1.615-1.454,3.703-2.185,6.261-2.185c2.59,0,4.645,0.758,6.163,2.27c1.521,1.513,2.28,3.378,2.28,5.598
			c0,3.313-1.897,5.951-5.693,7.913l4.561,6.056C113.467,25.68,114.319,23.268,114.979,20.148z M102.24,24.08
			c-2.236,1.353-3.354,3.104-3.354,5.26c0,1.385,0.409,2.519,1.229,3.401c0.819,0.885,1.979,1.326,3.475,1.326
			c1.752,0,3.288-0.644,4.606-1.93L102.24,24.08z M105.063,17.566c1.979-1.108,2.969-2.621,2.969-4.535
			c0-0.771-0.215-1.428-0.641-1.967c-0.427-0.538-1.064-0.809-1.918-0.809c-0.82,0-1.455,0.241-1.905,0.725
			c-0.45,0.481-0.676,1.103-0.676,1.856C102.892,14.01,103.615,15.588,105.063,17.566z"/>
	</g>
	<g display="inline">
		<path fill="#291C19" d="M-127.674,126.775l4.843-1.096c1.952,5.854,6.172,8.784,12.673,8.784c3.395,0,5.95-0.733,7.668-2.174
			c1.718-1.438,2.578-3.367,2.578-5.787c0-1.838-0.651-3.303-1.963-4.428c-1.313-1.113-2.824-1.875-4.543-2.283l-8.583-2.121
			c-2.225-0.58-4.041-1.248-5.455-2.055c-1.417-0.812-2.615-2.072-3.604-3.736c-0.981-1.69-1.476-3.606-1.476-5.756
			c0-3.597,1.354-6.447,4.054-8.584c2.708-2.138,6.176-3.19,10.405-3.19c7.799,0,12.926,3.528,15.374,10.588l-4.868,1.444
			c-0.564-2.514-1.901-4.43-3.996-5.719c-2.097-1.289-4.329-1.933-6.694-1.933c-2.349,0-4.439,0.623-6.274,1.879
			c-1.833,1.233-2.749,2.988-2.749,5.269c0,3.172,2.325,5.33,6.975,6.442l8.021,1.871c7.334,1.761,11.007,5.726,11.007,11.869
			c0,3.713-1.378,6.803-4.137,9.246c-2.758,2.471-6.641,3.692-11.646,3.692C-118.952,139.002-124.818,134.945-127.674,126.775z"/>
		<path fill="#291C19" d="M-58.614,139.002c-5.515,0-9.809-2.125-12.891-6.433c-3.083-4.276-4.621-9.53-4.621-15.774
			c0-6.481,1.611-11.86,4.84-16.106c3.229-4.231,7.502-6.338,12.827-6.338c5.304,0,9.558,2.08,12.764,6.237
			c3.21,4.158,4.813,9.404,4.813,15.738c0,6.073-1.558,11.387-4.667,15.897C-48.666,136.742-53.021,139.002-58.614,139.002z
			 M-58.49,134.641c3.755,0,6.687-1.709,8.805-5.138c2.118-3.401,3.177-7.813,3.177-13.215c0-5.521-1.097-9.843-3.288-12.912
			c-2.188-3.086-5.096-4.646-8.721-4.646c-3.67,0-6.585,1.679-8.74,5.002c-2.161,3.356-3.24,7.703-3.24,13.099
			c0,5.256,1.092,9.56,3.271,12.849C-65.048,132.998-62.136,134.641-58.49,134.641z"/>
		<path fill="#291C19" d="M5.413,133.414v4.724h-25.34V95.215h5.5v38.199H5.413z"/>
		<path fill="#291C19" d="M47.969,95.215h4.456v28.031c0,5.616-1.379,9.649-4.129,12.098c-2.755,2.447-6.366,3.658-10.832,3.658
			c-4.966,0-8.648-1.254-11.033-3.76c-2.391-2.535-3.583-6.523-3.583-11.996V95.215h5.379v28.033c0,3.336,0.384,5.692,1.154,7.043
			c0.781,1.375,1.951,2.387,3.524,3.039c1.57,0.651,3.219,0.978,4.932,0.978c3.313,0,5.83-0.882,7.554-2.615
			c1.711-1.737,2.578-4.562,2.578-8.442V95.215z"/>
		<path fill="#291C19" d="M101.115,123.691l4.901,1.121C103.666,134.281,98.368,139,90.113,139c-5.43,0-9.688-2.183-12.783-6.569
			c-3.088-4.39-4.631-9.765-4.631-16.16c0-6.603,1.613-11.924,4.842-15.935c3.228-4.002,7.553-5.987,12.977-5.987
			c8.055,0,13.212,4.588,15.502,13.793l-5.06,1.012c-1.844-6.844-5.338-10.266-10.469-10.266c-3.796,0-6.74,1.594-8.824,4.776
			c-2.084,3.168-3.126,7.617-3.126,13.379c0,5.25,1.071,9.474,3.204,12.64c2.146,3.187,4.978,4.78,8.492,4.78
			C95.706,134.465,99.331,130.873,101.115,123.691z"/>
		<path fill="#291C19" d="M130.926,138.137h-5.356V95.215h5.356V138.137z"/>
		<path fill="#291C19" d="M169.34,139.002c-5.519,0-9.805-2.125-12.889-6.433c-3.084-4.276-4.613-9.53-4.613-15.774
			c0-6.481,1.615-11.86,4.845-16.106c3.229-4.231,7.489-6.338,12.813-6.338c5.301,0,9.565,2.08,12.771,6.237
			c3.202,4.158,4.805,9.404,4.805,15.738c0,6.073-1.547,11.387-4.668,15.897C179.283,136.742,174.928,139.002,169.34,139.002z
			 M169.459,134.641c3.76,0,6.701-1.709,8.82-5.138c2.104-3.401,3.167-7.813,3.167-13.215c0-5.521-1.09-9.843-3.297-12.912
			c-2.178-3.086-5.088-4.646-8.719-4.646c-3.67,0-6.586,1.679-8.728,5.002c-2.172,3.356-3.242,7.703-3.242,13.099
			c0,5.256,1.084,9.56,3.263,12.849C162.908,132.998,165.824,134.641,169.459,134.641z"/>
		<path fill="#291C19" d="M239.629,138.137H234.4l-22.188-37.416l0.066,2.825c0.053,1.078,0.09,1.97,0.09,2.718v31.873h-4.336
			V95.215h6.721l20.75,34.974l-0.053-2.974c-0.052-1.18-0.074-2.229-0.074-3.118V95.215h4.254L239.629,138.137L239.629,138.137z"/>
		<path fill="#291C19" d="M290.977,133.414v4.724h-27.761V95.215h27.173v4.726h-21.793v13.636h17.297v4.373h-17.297v15.467
			L290.977,133.414L290.977,133.414z"/>
		<path fill="#291C19" d="M306.66,126.775l4.844-1.096c1.948,5.854,6.162,8.784,12.658,8.784c3.396,0,5.949-0.733,7.672-2.174
			c1.725-1.438,2.578-3.367,2.578-5.787c0-1.838-0.653-3.303-1.955-4.428c-1.313-1.113-2.832-1.875-4.543-2.283l-8.593-2.121
			c-2.218-0.58-4.045-1.248-5.452-2.055c-1.408-0.812-2.617-2.072-3.602-3.736c-0.984-1.69-1.477-3.606-1.477-5.756
			c0-3.597,1.348-6.447,4.055-8.584c2.705-2.138,6.17-3.19,10.412-3.19c7.79,0,12.916,3.528,15.367,10.588l-4.87,1.444
			c-0.57-2.514-1.897-4.43-3.996-5.719c-2.097-1.289-4.329-1.933-6.692-1.933c-2.354,0-4.441,0.623-6.271,1.879
			c-1.843,1.233-2.752,2.988-2.752,5.269c0,3.172,2.32,5.33,6.973,6.442l8.025,1.871c7.332,1.761,11,5.726,11,11.869
			c0,3.713-1.382,6.803-4.14,9.246c-2.751,2.471-6.64,3.692-11.646,3.692C315.381,139.002,309.502,134.945,306.66,126.775z"/>
	</g>
	<g display="inline">
		<path fill="#291C19" d="M-127.674,152.268h467.717l-14.173,5.084H-113.5L-127.674,152.268z"/>
	</g>
</g>
<g id="Logo">
	<g id="letras_x5F_logo">
		<path display="none" fill="#FFFFFF" stroke="#FFFFFF" stroke-miterlimit="10" stroke-dasharray="12" d="M92.31-13.167
			c2.811-1.535,5.2-3.083,7.193-4.646c1.271-1,2.352-2.033,3.334-3.063v-25.37c-0.184-0.157-0.308-0.359-0.496-0.525
			c-1.693-1.458-3.713-2.563-6.013-3.4l-7.846,8.814c0.478,0.095,0.924,0.229,1.373,0.416c0.877,0.379,1.661,0.904,2.336,1.599
			c0.685,0.688,1.195,1.515,1.574,2.485c0.364,0.957,0.554,2.037,0.554,3.225s-0.134,2.29-0.438,3.314
			c-0.292,1.021-0.789,1.982-1.479,2.866c-0.696,0.881-1.565,1.752-2.604,2.595c-1.044,0.857-2.339,1.706-3.889,2.576
			c-0.394-0.275-0.802-0.525-1.238-0.771c-0.422-0.233-0.871-0.488-1.292-0.758c-1.475-1.979-2.508-3.709-3.109-5.209
			c-0.312-0.766-0.535-1.546-0.692-2.348l-9.877,11.097c0.878,1.398,1.882,2.857,3.025,4.389c-2.833,1.531-5.347,3.125-7.541,4.755
			c-1.66,1.236-3.043,2.554-4.293,3.898l9.494,14.151c0-0.078-0.029-0.137-0.029-0.213c0-1.381,0.188-2.658,0.564-3.813
			c0.379-1.164,0.942-2.272,1.715-3.311c0.771-1.053,1.771-2.086,2.993-3.105c1.217-1.029,2.7-2.081,4.429-3.138L98,14.409
			c-1.554,1.37-3.178,2.467-4.896,3.271c-1.71,0.809-3.646,1.377-5.82,1.688c-0.789,0.082-1.604,0.127-2.424,0.143
			c-0.828,0.031-1.614,0.023-2.372-0.026c-1.583-0.103-3.015-0.45-4.349-0.998l8.354,12.464c3.342-0.234,6.424-0.812,9.22-1.729
			c2.492-0.818,4.854-1.947,7.123-3.337V-0.688L92.31-13.167z"/>
		<polygon id="KK" fill="#002B49" stroke="#FFFFFF" stroke-miterlimit="10" stroke-dasharray="12" points="157.844,-9.031 
			201.499,-58.059 174.355,-58.059 127.497,-4.532 127.497,-58.059 105.604,-58.059 105.087,-58.059 78.459,-58.059 31.589,-4.532 
			31.589,-58.059 9.184,-58.059 9.184,58.95 31.589,58.95 31.589,16.478 44.814,3.689 80.791,58.95 105.087,58.95 107.508,58.95 
			127.497,58.95 127.497,16.478 140.704,3.689 176.699,58.95 203.416,58.95 		"/>
		<path id="et_x5F_blanco" fill="#FFFFFD" stroke="#FFFFFF" stroke-miterlimit="10" stroke-dasharray="12" d="M102.838-20.877
			c-0.982,1.03-2.063,2.063-3.334,3.063c-1.993,1.563-4.385,3.109-7.193,4.646l10.527,12.479v26.573
			c-2.27,1.39-4.631,2.519-7.123,3.337c-2.796,0.918-5.878,1.493-9.22,1.729l-8.354-12.465c1.334,0.548,2.766,0.896,4.349,0.998
			c0.758,0.052,1.545,0.06,2.372,0.026c0.819-0.016,1.635-0.061,2.424-0.143c2.174-0.313,4.11-0.882,5.82-1.688
			c1.721-0.806,3.345-1.9,4.896-3.271L80.06-6.658c-1.729,1.057-3.212,2.106-4.429,3.138c-1.223,1.021-2.222,2.055-2.993,3.105
			c-0.771,1.037-1.336,2.146-1.715,3.311c-0.377,1.155-0.564,2.435-0.564,3.813c0,0.076,0.029,0.135,0.029,0.213l-9.494-14.15
			c1.25-1.347,2.633-2.662,4.293-3.898c2.194-1.63,4.708-3.224,7.541-4.755c-1.146-1.529-2.147-2.988-3.025-4.389l9.877-11.098
			c0.157,0.802,0.383,1.582,0.692,2.348c0.604,1.5,1.638,3.229,3.109,5.209c0.421,0.27,0.868,0.526,1.292,0.758
			c0.437,0.25,0.847,0.495,1.238,0.771c1.55-0.871,2.845-1.719,3.889-2.576c1.037-0.843,1.906-1.714,2.604-2.595
			c0.688-0.884,1.188-1.848,1.479-2.867c0.306-1.024,0.438-2.128,0.438-3.313c0-1.187-0.188-2.268-0.554-3.225
			c-0.379-0.973-0.892-1.797-1.574-2.486c-0.675-0.691-1.459-1.219-2.336-1.598c-0.448-0.188-0.896-0.321-1.373-0.416l7.846-8.814
			c2.3,0.84,4.317,1.942,6.013,3.4c0.188,0.166,0.313,0.368,0.496,0.525V-20.877L102.838-20.877z"/>
	</g>
	<g id="nombre_x5F_logo">
		<g id="soluciones">
			<path id="S1" fill="#002B49" stroke="#FFFFFF" stroke-miterlimit="10" stroke-dasharray="12" d="M-247.245,145.043
				c-2.49,0-4.663-0.284-6.531-0.878c-1.861-0.592-3.417-1.415-4.66-2.482c-1.251-1.067-2.188-2.33-2.841-3.798
				c-0.641-1.481-0.99-3.097-1.041-4.863h4.496c0.12,1.353,0.477,2.521,1.066,3.506c0.59,0.989,1.354,1.802,2.273,2.438
				c0.921,0.639,1.984,1.123,3.18,1.42c1.188,0.313,2.463,0.451,3.825,0.451c1.321,0,2.523-0.12,3.607-0.417
				c1.077-0.269,2.002-0.666,2.765-1.2c0.77-0.506,1.361-1.141,1.776-1.884c0.416-0.746,0.627-1.582,0.627-2.533
				c0-0.977-0.189-1.799-0.571-2.459c-0.38-0.662-1.009-1.25-1.869-1.769c-0.862-0.493-2.001-0.967-3.409-1.367
				c-1.41-0.4-3.133-0.811-5.176-1.227c-1.98-0.446-3.693-0.974-5.136-1.522c-1.435-0.577-2.617-1.27-3.539-2.03
				c-0.921-0.771-1.606-1.68-2.049-2.688c-0.447-1.01-0.667-2.174-0.667-3.468c0-1.424,0.304-2.752,0.912-3.955
				c0.607-1.201,1.473-2.233,2.577-3.097c1.104-0.89,2.429-1.559,3.965-2.035c1.547-0.5,3.26-0.737,5.139-0.737
				c1.982,0,3.791,0.237,5.423,0.737c1.633,0.479,3.038,1.17,4.221,2.093c1.182,0.928,2.118,2.025,2.794,3.354
				c0.681,1.301,1.049,2.802,1.097,4.45h-4.543c-0.474-4.264-3.397-6.405-8.78-6.405c-2.633,0-4.655,0.476-6.072,1.454
				c-1.419,0.979-2.128,2.31-2.128,3.955c0,0.758,0.128,1.391,0.393,1.927c0.255,0.521,0.705,0.978,1.33,1.378
				c0.624,0.4,1.462,0.77,2.509,1.102c1.042,0.323,2.34,0.646,3.896,0.981c1.057,0.226,2.146,0.459,3.26,0.705
				c1.117,0.271,2.2,0.567,3.259,0.936c1.051,0.371,2.049,0.808,2.989,1.33c0.942,0.504,1.764,1.122,2.469,1.863
				c0.704,0.73,1.266,1.602,1.677,2.603c0.409,1.002,0.613,2.18,0.613,3.501c0,1.558-0.327,2.979-0.982,4.289
				c-0.65,1.287-1.563,2.419-2.729,3.341c-1.171,0.946-2.552,1.691-4.154,2.208C-243.593,144.786-245.346,145.043-247.245,145.043z"
				/>
			<path id="O1" fill="#002B49" stroke="#FFFFFF" stroke-miterlimit="10" stroke-dasharray="12" d="M-201.602,108.446
				c2.456,0,4.718,0.435,6.781,1.304c2.063,0.896,3.845,2.129,5.343,3.727c1.498,1.593,2.668,3.499,3.514,5.771
				c0.844,2.239,1.269,4.722,1.269,7.465c0,2.706-0.422,5.206-1.253,7.445c-0.836,2.243-2,4.184-3.49,5.795
				c-1.491,1.609-3.269,2.854-5.34,3.769c-2.078,0.882-4.35,1.325-6.821,1.325c-2.479,0-4.749-0.439-6.821-1.314
				c-2.075-0.901-3.856-2.145-5.354-3.746c-1.499-1.604-2.667-3.542-3.502-5.79c-0.84-2.251-1.26-4.742-1.26-7.481
				c0-2.759,0.429-5.246,1.273-7.489c0.839-2.27,2.02-4.174,3.523-5.771c1.508-1.596,3.3-2.823,5.369-3.712
				C-206.299,108.875-204.042,108.446-201.602,108.446z M-201.629,141.021c1.757,0,3.377-0.308,4.857-0.972
				c1.482-0.642,2.762-1.562,3.826-2.812c1.075-1.226,1.907-2.715,2.51-4.494c0.602-1.779,0.9-3.791,0.9-6.036
				c0-2.24-0.301-4.248-0.9-6.021c-0.603-1.772-1.435-3.253-2.51-4.463c-1.064-1.208-2.333-2.143-3.802-2.774
				c-1.459-0.63-3.052-0.96-4.778-0.96c-1.764,0-3.386,0.333-4.875,0.973c-1.49,0.641-2.771,1.58-3.852,2.798
				c-1.081,1.217-1.923,2.695-2.523,4.464c-0.602,1.766-0.899,3.762-0.899,5.985c0,2.245,0.296,4.257,0.888,6.036
				s1.426,3.271,2.493,4.494c1.072,1.25,2.346,2.17,3.813,2.812C-205.005,140.715-203.391,141.021-201.629,141.021z"/>
			<path id="L" fill="#002B49" stroke="#FFFFFF" stroke-miterlimit="10" stroke-dasharray="12" d="M-145.85,144.42h-21.901V109.07
				h4.68v31.144h17.224L-145.85,144.42L-145.85,144.42z"/>
			<path id="U" fill="#002B49" stroke="#FFFFFF" stroke-miterlimit="10" stroke-dasharray="12" d="M-115.655,145.043
				c-2.194,0-4.062-0.22-5.592-0.657c-1.535-0.438-2.813-1.038-3.843-1.804c-1.026-0.766-1.836-1.639-2.431-2.646
				c-0.595-1.01-1.041-2.104-1.347-3.232c-0.303-1.157-0.496-2.351-0.574-3.572c-0.08-1.227-0.118-2.433-0.118-3.62V109.07h4.682
				v20.346c0,2.374,0.204,4.313,0.613,5.792c0.408,1.505,1.007,2.664,1.788,3.505c0.782,0.831,1.745,1.4,2.888,1.688
				c1.146,0.31,2.454,0.438,3.934,0.438c1.48,0,2.795-0.139,3.946-0.451c1.146-0.297,2.107-0.864,2.871-1.731
				c0.768-0.838,1.354-2.008,1.753-3.479c0.4-1.471,0.603-3.396,0.603-5.758V109.07h4.728v20.438c0,2.438-0.207,4.621-0.623,6.529
				c-0.418,1.937-1.151,3.563-2.195,4.903c-1.048,1.315-2.466,2.349-4.263,3.049C-110.629,144.702-112.903,145.043-115.655,145.043z
				"/>
			<path id="C_1_" fill="#002B49" stroke="#FFFFFF" stroke-miterlimit="10" stroke-dasharray="12" d="M-53.996,119.772h-4.811
				c-0.071-1.1-0.36-2.107-0.879-3.027c-0.512-0.894-1.192-1.666-2.033-2.3c-0.849-0.632-1.826-1.136-2.952-1.479
				c-1.127-0.325-2.333-0.501-3.623-0.501c-1.771,0-3.378,0.317-4.82,0.938c-1.437,0.618-2.657,1.518-3.668,2.728
				c-1.01,1.208-1.792,2.717-2.34,4.479c-0.551,1.756-0.824,3.785-0.824,6.099c0,2.291,0.271,4.341,0.812,6.104
				c0.545,1.781,1.313,3.289,2.327,4.501c1.014,1.208,2.223,2.117,3.634,2.763c1.409,0.644,2.999,0.945,4.753,0.945
				c1.379,0,2.633-0.178,3.778-0.493c1.138-0.353,2.123-0.854,2.947-1.529c0.828-0.66,1.489-1.478,1.988-2.448
				c0.496-0.973,0.798-2.071,0.9-3.344h4.811c-0.179,1.899-0.65,3.563-1.422,5.02c-0.778,1.479-1.793,2.714-3.051,3.727
				c-1.249,1.007-2.72,1.78-4.384,2.297c-1.676,0.539-3.494,0.796-5.469,0.796c-2.524,0-4.811-0.428-6.844-1.281
				c-2.035-0.854-3.772-2.104-5.203-3.687c-1.425-1.585-2.523-3.521-3.291-5.768c-0.762-2.271-1.146-4.791-1.146-7.601
				c0-2.786,0.391-5.32,1.16-7.571c0.773-2.248,1.88-4.188,3.321-5.781c1.437-1.575,3.166-2.821,5.195-3.673
				c2.031-0.854,4.297-1.283,6.808-1.283c1.869,0,3.628,0.264,5.295,0.812c1.66,0.521,3.133,1.292,4.415,2.287
				c1.284,0.993,2.323,2.192,3.135,3.597C-54.667,116.494-54.175,118.063-53.996,119.772z"/>
			<path id="I" fill="#002B49" stroke="#FFFFFF" stroke-miterlimit="10" stroke-dasharray="12" d="M-31.509,144.42h-4.684V109.07
				h4.684V144.42z"/>
			<path id="O2" fill="#002B49" stroke="#FFFFFF" stroke-miterlimit="10" stroke-dasharray="12" d="M2.942,108.446
				c2.464,0,4.721,0.435,6.789,1.304c2.057,0.896,3.841,2.129,5.338,3.727c1.5,1.593,2.679,3.499,3.518,5.771
				c0.839,2.239,1.271,4.722,1.271,7.465c0,2.706-0.415,5.206-1.262,7.445c-0.83,2.243-1.998,4.184-3.491,5.795
				c-1.478,1.609-3.264,2.854-5.34,3.769c-2.063,0.882-4.344,1.325-6.822,1.325c-2.464,0-4.741-0.439-6.819-1.314
				c-2.063-0.901-3.852-2.145-5.353-3.746c-1.499-1.604-2.671-3.542-3.502-5.79c-0.832-2.251-1.248-4.742-1.248-7.481
				c0-2.759,0.42-5.246,1.26-7.489c0.852-2.27,2.02-4.174,3.525-5.771c1.507-1.596,3.298-2.823,5.377-3.712
				C-1.749,108.875,0.508,108.446,2.942,108.446z M2.922,141.021c1.766,0,3.384-0.308,4.854-0.972
				c1.482-0.642,2.764-1.562,3.839-2.812c1.063-1.226,1.908-2.715,2.509-4.494c0.604-1.779,0.901-3.791,0.901-6.036
				c0-2.24-0.3-4.248-0.901-6.021c-0.601-1.772-1.445-3.253-2.509-4.463c-1.075-1.208-2.349-2.143-3.806-2.774
				c-1.468-0.63-3.063-0.96-4.786-0.96c-1.761,0-3.388,0.333-4.877,0.973c-1.479,0.641-2.77,1.58-3.852,2.798
				c-1.084,1.217-1.919,2.695-2.521,4.464c-0.603,1.766-0.9,3.762-0.9,5.985c0,2.245,0.298,4.257,0.891,6.036
				c0.594,1.779,1.423,3.271,2.498,4.494c1.063,1.25,2.34,2.17,3.815,2.812C-0.459,140.715,1.155,141.021,2.922,141.021z"/>
			<path id="N" fill="#002B49" stroke="#FFFFFF" stroke-miterlimit="10" stroke-dasharray="12" d="M64.597,144.42h-4.811
				l-18.54-27.885v27.885h-4.438V109.07h4.834l18.472,27.93v-27.93h4.483V144.42z"/>
			<path id="E" fill="#002B49" stroke="#FFFFFF" stroke-miterlimit="10" stroke-dasharray="12" d="M109.558,144.42H83.18V109.07
				h25.591v4.207H87.848v10.749h19.535v4.188H87.848v12h21.71V144.42z"/>
			<path id="S2" fill="#002B49" stroke="#FFFFFF" stroke-miterlimit="10" stroke-dasharray="12" d="M140.207,145.043
				c-2.489,0-4.659-0.284-6.546-0.878c-1.854-0.592-3.415-1.415-4.658-2.482c-1.238-1.067-2.191-2.33-2.832-3.798
				c-0.638-1.481-0.992-3.097-1.037-4.863h4.483c0.131,1.353,0.492,2.521,1.08,3.506c0.583,0.989,1.34,1.802,2.275,2.438
				c0.907,0.639,1.98,1.123,3.177,1.42c1.197,0.313,2.46,0.451,3.827,0.451c1.31,0,2.51-0.12,3.605-0.417
				c1.068-0.269,2.005-0.666,2.768-1.2c0.753-0.506,1.347-1.141,1.763-1.884c0.415-0.746,0.623-1.582,0.623-2.533
				c0-0.977-0.174-1.799-0.551-2.459c-0.386-0.662-1.01-1.25-1.889-1.769c-0.854-0.493-2-0.967-3.411-1.367
				c-1.41-0.4-3.114-0.811-5.159-1.227c-1.981-0.446-3.705-0.974-5.14-1.522c-1.432-0.577-2.614-1.27-3.549-2.03
				c-0.909-0.771-1.604-1.68-2.046-2.688c-0.438-1.01-0.656-2.174-0.656-3.468c0-1.424,0.291-2.752,0.897-3.955
				c0.607-1.201,1.487-2.233,2.577-3.097c1.119-0.89,2.427-1.559,3.979-2.035c1.551-0.5,3.248-0.737,5.143-0.737
				c1.968,0,3.775,0.237,5.418,0.737c1.637,0.479,3.043,1.17,4.223,2.093c1.178,0.928,2.108,2.025,2.797,3.354
				c0.677,1.301,1.049,2.802,1.095,4.45h-4.561c-0.461-4.264-3.396-6.405-8.766-6.405c-2.639,0-4.669,0.476-6.087,1.454
				c-1.421,0.979-2.112,2.31-2.112,3.955c0,0.758,0.111,1.391,0.391,1.927c0.255,0.521,0.692,0.978,1.316,1.378
				c0.626,0.4,1.479,0.77,2.523,1.102c1.037,0.323,2.325,0.646,3.882,0.981c1.062,0.226,2.158,0.459,3.263,0.705
				c1.121,0.271,2.194,0.567,3.271,0.936c1.046,0.371,2.047,0.808,2.986,1.33c0.927,0.504,1.747,1.122,2.469,1.863
				c0.689,0.73,1.253,1.602,1.661,2.603c0.407,1.002,0.613,2.18,0.613,3.501c0,1.558-0.311,2.979-0.98,4.289
				c-0.646,1.287-1.548,2.419-2.714,3.341c-1.175,0.946-2.562,1.691-4.166,2.208C143.851,144.786,142.093,145.043,140.207,145.043z"
				/>
			<path id="K2" fill="#002B49" stroke="#FFFFFF" stroke-miterlimit="10" stroke-dasharray="12" d="M226.891,144.42h-6.149
				l-12.604-17.641l-5.5,5.364v12.274h-4.672v-35.351h4.672v17.502l17.294-17.502h6.299l-14.816,14.494L226.891,144.42z"/>
			<path id="et_x5F_logo" fill="#002B49" stroke="#FFFFFF" stroke-miterlimit="10" stroke-dasharray="12" d="M274.456,141.367
				l-3.156,3.099l-5.412-5.433c-3.207,4.14-7.118,6.195-11.761,6.195c-3.375,0-6.234-1.057-8.538-3.189
				c-2.406-2.195-3.605-4.946-3.605-8.3c0-4.985,2.271-8.841,6.842-11.583c-2.902-3.074-4.371-5.704-4.371-7.884
				c0-2.539,0.894-4.596,2.637-6.198c1.722-1.559,3.849-2.317,6.381-2.317c2.565,0,4.721,0.761,6.452,2.317
				c1.819,1.604,2.729,3.659,2.729,6.198c0,3.188-2.229,6.146-6.688,8.854l9.093,9.087c0.861-2.512,1.296-5.518,1.296-9.019h4.115
				c0,2.743-0.063,4.664-0.186,5.735c-0.278,2.466-0.927,4.607-1.922,6.404L274.456,141.367z M262.696,135.914l-10.76-10.7
				c-1.486,0.957-2.72,2.148-3.714,3.576c-1.093,1.604-1.642,3.206-1.642,4.811c0,2.3,0.685,4.1,2.081,5.397
				c1.396,1.329,3.214,1.978,5.464,1.978c1.584,0,3.29-0.594,5.102-1.778C260.759,138.172,261.909,137.077,262.696,135.914z
				 M258.027,114.273c0-1.364-0.437-2.423-1.309-3.19c-0.854-0.772-1.966-1.159-3.347-1.159c-2.885,0-4.314,1.462-4.314,4.352
				c0,1.291,1.301,3.183,3.896,5.616c1.644-1.109,2.714-1.885,3.246-2.383C257.417,116.404,258.027,115.31,258.027,114.273z"/>
			<path id="K1" fill="#002B49" stroke="#FFFFFF" stroke-miterlimit="10" stroke-dasharray="12" d="M320.358,144.42h-6.142
				l-12.597-17.641l-5.51,5.364v12.274h-4.688v-35.351h4.688v17.502l17.292-17.502h6.298l-14.82,14.494L320.358,144.42z"/>
		</g>
		<path id="coma" fill="#002B49" stroke="#FFFFFF" stroke-miterlimit="10" stroke-dasharray="12" d="M334.307,143.58
			c0,0.35-0.066,0.627-0.208,0.835l-4.671,6.967l-1.879-1.33l3.705-5.637h-3.001v-5.792h6.054V143.58L334.307,143.58z"/>
		<path id="C" fill="#002B49" stroke="#FFFFFF" stroke-miterlimit="10" stroke-dasharray="12" d="M403.39,119.807h-4.802
			c-0.064-1.112-0.357-2.122-0.873-3.025c-0.514-0.905-1.188-1.676-2.035-2.312c-0.843-0.636-1.824-1.121-2.945-1.462
			c-1.124-0.34-2.328-0.509-3.616-0.509c-1.773,0-3.38,0.311-4.813,0.927c-1.437,0.616-2.657,1.529-3.669,2.739
			c-1.008,1.209-1.785,2.696-2.334,4.462c-0.548,1.767-0.82,3.799-0.82,6.097c0,2.296,0.27,4.332,0.811,6.104
			c0.54,1.774,1.313,3.268,2.321,4.478c1.01,1.208,2.219,2.131,3.628,2.768c1.408,0.636,2.99,0.949,4.749,0.949
			c1.373,0,2.631-0.169,3.771-0.508c1.144-0.34,2.122-0.846,2.949-1.517c0.824-0.666,1.488-1.484,1.984-2.451
			c0.496-0.966,0.796-2.073,0.896-3.325h4.802c-0.174,1.879-0.646,3.549-1.422,5.01c-0.771,1.461-1.787,2.694-3.038,3.705
			c-1.254,1.01-2.716,1.778-4.386,2.311c-1.67,0.531-3.487,0.796-5.452,0.796c-2.522,0-4.802-0.433-6.837-1.291
			c-2.037-0.86-3.768-2.087-5.192-3.679c-1.43-1.594-2.524-3.517-3.288-5.771c-0.768-2.252-1.147-4.777-1.147-7.578
			c0-2.785,0.386-5.303,1.159-7.559c0.776-2.252,1.879-4.175,3.313-5.766c1.438-1.593,3.168-2.818,5.194-3.68
			c2.024-0.863,4.292-1.292,6.798-1.292c1.861,0,3.622,0.27,5.283,0.808c1.66,0.539,3.131,1.307,4.412,2.298
			c1.278,0.992,2.322,2.188,3.13,3.588C402.726,116.523,403.217,118.084,403.39,119.807z"/>
		<path id="punto" fill="#002B49" stroke="#FFFFFF" stroke-miterlimit="10" stroke-dasharray="12" d="M420.787,144.415v-5.792h6.054
			v5.792H420.787z"/>
		<path id="A" fill="#002B49" stroke="#FFFFFF" stroke-miterlimit="10" stroke-dasharray="12" d="M474.688,144.415h-5.299
			l-4.097-10.726h-14.798l-3.891,10.726h-4.933l13.545-35.31h5.063L474.688,144.415z M463.934,129.933l-6.232-16.336l-5.925,16.336
			H463.934z"/>
	</g>
</g>
<text transform="matrix(1 0 0 1 678.467 -149.0544)" display="none" enable-background="new    " font-family="'ArialMT'" font-size="45.5" letter-spacing="7">SOLUCIONES K&amp;K, C.A</text>
</svg>
